<svg width="37" height="45" viewBox="0 0 37 45" fill="none" xmlns="http://www.w3.org/2000/svg">
<path d="M27.5743 21.96C30.1769 22.5147 32.2676 23.816 33.8463 25.864C35.4249 27.8693 36.2143 30.1733 36.2143 32.776C36.2143 36.5307 34.8916 39.5173 32.2463 41.736C29.6436 43.912 25.9956 45 21.3023 45H0.37425V0.0719986H20.5983C25.1636 0.0719986 28.7263 1.11733 31.2863 3.208C33.8889 5.29866 35.1903 8.136 35.1903 11.72C35.1903 14.3653 34.4863 16.5627 33.0783 18.312C31.7129 20.0613 29.8783 21.2773 27.5743 21.96ZM11.3183 18.248H18.4863C20.2783 18.248 21.6436 17.864 22.5823 17.096C23.5636 16.2853 24.0543 15.112 24.0543 13.576C24.0543 12.04 23.5636 10.8667 22.5823 10.056C21.6436 9.24533 20.2783 8.84 18.4863 8.84H11.3183V18.248ZM19.3823 36.168C21.2169 36.168 22.6249 35.7627 23.6063 34.952C24.6303 34.0987 25.1423 32.8827 25.1423 31.304C25.1423 29.7253 24.6089 28.488 23.5423 27.592C22.5183 26.696 21.0889 26.248 19.2543 26.248H11.3183V36.168H19.3823Z" fill="black"/>
</svg>
