<?xml version="1.0" standalone="no"?>
<!DOCTYPE svg PUBLIC "-//W3C//DTD SVG 20010904//EN"
 "http://www.w3.org/TR/2001/REC-SVG-20010904/DTD/svg10.dtd">
<svg version="1.0" xmlns="http://www.w3.org/2000/svg"
 width="2115.000000pt" height="2119.000000pt" viewBox="0 0 2115.000000 2119.000000"
 preserveAspectRatio="xMidYMid meet">

<g transform="translate(0.000000,2119.000000) scale(0.100000,-0.100000)"
fill="#000000" stroke="none">
<path d="M0 14944 l0 -6246 53 45 c60 51 141 94 259 137 45 17 109 46 141 65
75 45 205 95 333 130 81 22 118 26 204 24 58 -1 130 -2 160 -2 70 0 262 43
410 92 63 21 194 57 290 80 96 24 220 56 275 72 55 16 118 35 140 41 22 7 72
26 111 44 178 80 221 96 409 145 110 28 210 54 222 57 12 2 28 10 34 18 6 8
18 14 25 14 8 0 14 4 14 9 0 13 83 50 130 57 76 12 162 -35 278 -153 61 -62
64 -87 13 -90 -33 -1 -77 -35 -67 -52 3 -4 -7 -6 -22 -3 -24 5 -25 3 -14 -11
17 -20 6 -40 -19 -34 -13 4 -27 -5 -44 -26 -14 -18 -25 -26 -25 -20 0 7 -11
12 -25 11 -20 -2 -23 -6 -18 -26 5 -22 4 -23 -16 -12 -19 10 -25 8 -43 -12
-11 -13 -25 -35 -30 -50 -12 -33 -23 -35 -38 -8 -13 25 -30 17 -31 -13 -1 -20
-2 -20 -8 3 l-7 25 -6 -24 c-4 -12 -11 -20 -17 -17 -6 4 -13 -5 -17 -21 -4
-15 -14 -36 -22 -46 -13 -15 -14 -22 -4 -38 7 -11 10 -24 7 -30 -11 -17 -25 1
-25 33 0 24 -3 28 -13 19 -8 -6 -17 -8 -20 -4 -4 3 -7 1 -7 -5 0 -7 5 -12 10
-12 6 0 10 -10 9 -22 0 -13 -3 -17 -6 -10 -2 6 -17 12 -31 12 -16 0 -22 3 -15
8 8 5 4 11 -12 18 -26 13 -44 6 -43 -16 1 -8 0 -24 -1 -35 -2 -19 -2 -19 -15
-3 -12 17 -15 17 -38 -5 -22 -21 -35 -24 -109 -24 -46 0 -106 -5 -134 -11 -62
-14 -182 -27 -215 -25 -13 1 -27 -3 -31 -9 -4 -6 -27 -13 -51 -14 -23 -2 -72
-10 -108 -19 -36 -9 -105 -24 -155 -34 -49 -10 -110 -24 -135 -30 -25 -6 -124
-18 -220 -27 -341 -30 -403 -38 -408 -52 -3 -11 15 -13 99 -8 188 11 353 26
444 41 50 8 105 14 124 15 29 0 98 15 361 80 19 4 73 14 120 20 47 7 114 16
150 22 112 16 403 13 525 -6 120 -18 310 -62 337 -76 29 -16 109 -31 208 -40
98 -9 242 -36 272 -51 10 -5 24 -9 32 -9 24 0 23 -33 -1 -68 -17 -26 -20 -39
-13 -58 6 -14 7 -40 4 -59 -3 -23 -1 -35 7 -35 6 0 9 -8 6 -20 -3 -11 -1 -20
3 -20 5 0 11 -13 15 -30 4 -16 12 -30 18 -30 7 0 6 -5 -3 -11 -11 -8 -12 -12
-2 -16 7 -2 12 -23 12 -46 1 -61 18 -130 37 -144 11 -8 12 -13 4 -13 -7 0 -9
-5 -6 -10 4 -6 2 -16 -3 -23 -11 -15 5 -80 18 -72 6 4 10 -7 10 -23 0 -21 8
-35 27 -47 l27 -18 33 38 c32 38 35 55 7 55 -8 0 -14 -10 -14 -25 0 -15 -6
-25 -15 -25 -23 0 -34 30 -22 64 14 42 15 42 32 20 14 -18 14 -17 12 11 -2 17
-6 36 -10 42 -7 11 1 23 15 23 4 0 8 -7 8 -15 0 -8 5 -15 11 -15 17 0 8 41
-32 145 -4 11 -17 49 -30 85 -12 36 -28 74 -35 85 -7 11 -20 49 -30 85 -15 56
-73 198 -119 295 -8 17 -21 46 -29 65 -8 19 -22 46 -30 60 -8 14 -49 95 -91
180 -98 197 -118 234 -112 200 2 -14 8 -34 12 -45 5 -14 -1 -11 -19 10 -26 31
-33 59 -17 69 10 7 0 61 -17 93 -19 34 -14 119 8 161 10 20 38 57 60 82 23 25
72 90 110 145 38 55 103 134 145 175 41 41 75 77 75 81 0 3 14 24 30 45 17 22
38 50 48 62 9 13 26 34 37 46 12 13 34 41 50 63 17 22 55 69 86 104 31 35 87
103 125 150 89 111 291 321 335 348 51 31 61 28 53 -16 -4 -21 -14 -49 -24
-63 -17 -26 -16 -60 1 -60 6 0 8 -4 5 -9 -4 -5 -2 -11 3 -13 5 -1 11 -52 12
-113 2 -88 7 -115 21 -134 10 -13 18 -32 18 -42 0 -11 5 -19 10 -19 6 0 10 -7
10 -15 0 -8 4 -15 9 -15 14 0 33 -64 25 -83 -5 -13 0 -17 17 -17 17 0 20 -3
11 -9 -22 -13 -4 -59 29 -73 22 -10 29 -20 29 -40 0 -16 7 -31 18 -37 10 -5
24 -29 31 -53 7 -24 24 -57 36 -74 13 -17 24 -40 25 -50 5 -84 4 -129 -5 -131
-17 -3 -23 -38 -7 -44 12 -4 9 -11 -12 -32 -15 -15 -25 -31 -21 -36 3 -5 1
-12 -5 -16 -6 -3 -13 1 -16 9 -9 24 -26 19 -19 -5 4 -12 1 -32 -6 -46 -10 -19
-10 -26 -1 -32 9 -6 8 -12 -7 -25 -18 -16 -19 -16 -25 19 -7 34 -26 50 -26 20
0 -8 -4 -15 -9 -15 -5 0 -13 -9 -16 -20 -4 -14 -15 -20 -36 -20 -32 0 -37 11
-14 30 17 14 20 50 5 50 -5 0 -10 -4 -10 -8 0 -4 -9 -8 -21 -9 -25 -2 -49 -21
-49 -39 0 -8 -5 -14 -11 -14 -6 0 -9 -6 -6 -14 3 -8 -1 -20 -9 -26 -11 -10
-14 -9 -14 7 0 26 -7 32 -30 26 -18 -5 -18 -5 1 -24 23 -23 24 -42 4 -59 -20
-17 -19 -27 5 -33 20 -5 29 -37 10 -37 -5 0 -10 7 -10 15 0 8 -4 15 -10 15 -5
0 -10 -8 -10 -17 0 -14 -2 -15 -9 -5 -7 11 -10 10 -15 -3 -13 -36 -7 -55 19
-55 32 0 55 -41 35 -65 -18 -21 -39 -19 -49 7 -7 20 -8 20 -19 -10 -6 -18 -16
-31 -23 -30 -22 5 -20 -20 3 -26 14 -5 18 -9 10 -13 -17 -7 -42 15 -42 38 0
22 -17 34 -33 21 -7 -5 -25 -12 -41 -16 -22 -5 -27 -11 -23 -26 3 -13 0 -20
-8 -20 -17 0 -45 27 -45 44 0 6 -9 12 -20 13 -21 2 -27 -11 -10 -22 16 -10 12
-35 -5 -29 -8 4 -15 15 -15 25 0 10 -6 19 -12 19 -9 0 -8 4 2 10 11 7 6 8 -17
4 -20 -4 -39 -2 -47 5 -10 9 -16 9 -21 1 -4 -6 -16 -8 -27 -4 -13 4 -18 2 -14
-4 3 -6 2 -13 -4 -17 -6 -3 -10 3 -10 15 0 16 -5 20 -15 16 -10 -4 -15 1 -15
15 0 15 -5 19 -16 15 -9 -3 -20 -6 -25 -6 -5 0 -9 -16 -9 -35 0 -28 -5 -38
-25 -47 -18 -8 -28 -8 -39 1 -10 8 -16 9 -21 1 -3 -5 -1 -10 4 -10 15 0 13
-52 -3 -72 -7 -10 -23 -18 -35 -18 -11 0 -21 -4 -21 -10 0 -5 -6 -10 -13 -10
-12 0 -28 -24 -43 -63 -4 -12 -15 -17 -32 -15 -24 3 -26 0 -29 -40 -2 -31 1
-44 12 -49 9 -3 13 -12 10 -23 -3 -9 1 -32 9 -51 7 -19 11 -40 9 -46 -3 -7 0
-13 6 -13 6 0 11 -9 11 -21 0 -11 8 -33 18 -47 10 -15 29 -52 42 -82 13 -30
29 -60 36 -66 7 -5 16 -39 20 -74 4 -37 18 -86 35 -119 16 -31 29 -64 29 -74
0 -10 4 -15 10 -12 6 4 10 -5 10 -19 0 -31 41 -160 52 -164 4 -2 8 -18 8 -35
0 -18 9 -57 21 -87 11 -30 27 -84 35 -120 7 -36 18 -74 23 -85 5 -11 23 -67
40 -125 17 -58 38 -125 46 -150 8 -25 22 -76 29 -115 8 -38 22 -101 30 -138 8
-38 18 -101 21 -140 3 -39 8 -86 11 -104 5 -28 3 -33 -14 -33 -21 0 -36 -25
-26 -42 4 -6 1 -9 -7 -6 -9 3 -13 16 -12 34 9 102 9 144 3 184 -4 25 -8 39 -9
33 -2 -19 -19 -16 -23 4 -3 16 -4 16 -20 0 -21 -21 -28 -21 -28 -2 0 17 -11
20 -26 6 -10 -10 -56 24 -67 50 -4 8 -5 4 -4 -9 2 -19 -5 -26 -35 -37 -21 -7
-35 -9 -32 -4 3 5 -2 9 -10 9 -9 0 -18 -13 -22 -36 -6 -35 -7 -36 -43 -29 -20
4 -47 8 -61 10 -26 2 -54 11 -82 25 -11 6 -20 5 -27 -4 -17 -21 -61 -26 -105
-13 -34 10 -40 9 -53 -9 -15 -18 -15 -18 -8 4 7 25 0 28 -20 8 -10 -10 -11
-16 -2 -25 8 -8 7 -11 -4 -11 -8 0 -19 4 -25 9 -5 5 -19 5 -33 0 -21 -8 -22
-11 -8 -22 14 -11 13 -16 -14 -47 -17 -20 -29 -28 -29 -20 0 8 -8 0 -17 -18
-9 -20 -29 -39 -49 -47 -19 -8 -34 -20 -34 -28 0 -8 -9 -17 -19 -20 -14 -3
-18 -1 -14 9 3 8 0 14 -6 14 -6 0 -12 -3 -12 -7 -7 -43 -5 -52 17 -57 13 -4
24 -11 24 -16 0 -6 5 -10 11 -10 6 0 9 7 5 15 -3 8 -1 15 4 15 11 0 12 -15 4
-48 -5 -17 -14 -22 -40 -22 -26 0 -32 4 -28 15 7 17 -6 19 -55 9 -19 -4 -31
-13 -31 -23 0 -14 -2 -14 -10 -1 -10 15 -10 15 -10 -25 0 -3 3 -5 6 -4 3 0 14
-9 23 -20 10 -12 26 -21 36 -21 22 0 14 -24 -10 -28 -10 -3 -27 7 -39 22 -12
15 -33 28 -49 30 -15 1 -30 6 -34 9 -11 11 -53 8 -53 -4 0 -6 6 -9 14 -6 8 3
17 -1 20 -9 3 -8 18 -14 35 -14 25 0 30 -4 35 -36 6 -28 11 -34 25 -29 11 3
26 -1 35 -10 19 -20 20 -27 4 -44 -11 -11 -6 -13 24 -8 21 3 40 1 43 -4 9 -14
35 -11 29 4 -3 8 2 20 11 27 13 11 15 9 16 -11 l1 -24 8 25 8 25 2 -25 c1 -14
2 -28 1 -32 0 -5 15 -5 35 -2 l37 6 -28 -26 c-16 -15 -25 -32 -21 -41 3 -8 1
-15 -4 -15 -6 0 -10 8 -10 19 0 23 -26 48 -32 30 -6 -18 -89 -15 -103 5 -12
15 -45 23 -45 10 0 -4 12 -18 27 -31 17 -16 26 -36 27 -56 1 -31 2 -32 46 -31
50 2 59 -6 52 -42 -5 -27 -36 -33 -46 -9 -3 8 -12 15 -21 15 -16 0 -20 -12 -7
-24 4 -4 7 -18 7 -29 0 -14 6 -22 17 -22 10 0 25 -8 35 -18 17 -18 17 -18 -8
-12 -24 6 -25 4 -21 -29 4 -35 4 -35 -31 -32 -41 4 -72 -20 -61 -48 3 -9 1
-16 -5 -16 -6 0 -11 14 -11 30 0 19 5 30 14 30 8 0 16 7 20 15 8 22 -15 18
-57 -10 -20 -14 -37 -21 -37 -15 0 6 -13 18 -30 28 -19 12 -26 22 -20 28 6 6
11 22 12 36 2 27 28 29 28 2 0 -21 27 -29 45 -14 10 8 13 21 9 34 -9 29 -14
33 -23 18 -6 -10 -13 -10 -33 1 -24 12 -25 14 -10 25 15 11 13 11 -8 6 -50
-13 -71 -24 -65 -34 3 -5 1 -10 -4 -10 -6 0 -11 5 -11 12 0 6 -3 8 -6 5 -4 -3
-15 -2 -25 4 -13 6 -19 6 -19 -1 0 -5 -4 -10 -10 -10 -5 0 -10 7 -10 16 0 13
-3 14 -14 4 -10 -7 -21 -8 -31 -2 -15 8 -15 10 2 27 17 18 17 18 -9 12 -19 -5
-28 -3 -32 9 -4 11 -10 13 -23 6 -11 -7 -21 -6 -31 4 -7 8 -29 14 -48 14 -27
0 -34 4 -34 20 0 11 4 20 9 20 5 0 16 3 25 6 11 4 16 1 16 -11 0 -22 24 -14
28 10 2 9 0 15 -6 11 -5 -3 -15 1 -22 9 -7 8 -19 15 -26 15 -17 0 -19 -20 -1
-21 6 0 3 -4 -8 -9 -32 -14 -45 -12 -38 7 5 12 3 14 -8 7 -20 -12 -79 -11 -79
2 0 15 -46 38 -59 30 -6 -4 -11 0 -11 8 0 9 -9 16 -20 16 -11 0 -20 4 -20 9 0
4 -11 6 -25 3 -19 -3 -25 0 -25 13 0 12 -6 16 -20 12 -12 -3 -20 0 -20 6 0 15
-56 41 -70 32 -6 -3 -7 0 -4 9 3 9 1 16 -5 16 -6 0 -11 -7 -11 -15 0 -9 -9
-15 -25 -15 -18 0 -26 7 -31 25 -3 14 -10 22 -15 19 -5 -3 -16 -1 -26 4 -22
13 -60 -4 -66 -29 -3 -11 -13 -19 -22 -19 -9 0 -14 4 -11 9 3 4 -6 18 -19 31
-20 19 -32 22 -69 18 -34 -4 -46 -2 -51 9 -4 11 -13 13 -31 9 -21 -6 -25 -4
-21 8 4 9 3 16 -2 16 -5 0 -14 13 -21 29 -6 16 -18 32 -26 35 -12 5 -12 1 1
-24 22 -43 19 -50 -22 -43 -21 3 -45 5 -54 5 -9 0 -20 11 -25 26 l-9 26 -21
-22 c-19 -21 -23 -21 -48 -8 -22 11 -24 15 -10 20 24 9 10 19 -15 11 -23 -7
-29 -35 -8 -36 6 0 2 -4 -11 -9 -12 -5 -22 -13 -22 -18 0 -5 -11 -7 -25 -4
l-25 4 24 19 c16 13 22 26 19 39 -4 14 -9 17 -17 11 -7 -6 -21 -8 -33 -5 -17
5 -23 -1 -33 -31 -10 -30 -15 -35 -32 -29 -17 5 -20 3 -15 -10 4 -9 2 -16 -3
-16 -6 0 -10 9 -10 21 0 15 -5 19 -15 15 -8 -3 -15 0 -15 6 0 6 -9 3 -20 -7
-11 -10 -20 -26 -20 -35 0 -19 -30 -50 -49 -50 -7 0 -11 10 -9 22 2 16 -1 22
-12 19 -33 -8 -44 -5 -48 12 -2 11 3 17 15 18 10 0 13 3 6 5 -19 8 -53 -15
-53 -36 0 -22 -8 -25 -30 -10 -10 6 -11 10 -2 10 19 0 14 23 -8 43 -17 14 -24
15 -40 5 -11 -7 -18 -19 -15 -25 5 -14 -29 -40 -60 -45 -11 -2 -23 -10 -27
-18 -5 -11 -10 -6 -19 17 -14 35 -29 44 -29 17 0 -13 -7 -15 -29 -11 -45 9
-85 -26 -78 -69 4 -23 1 -34 -9 -38 -10 -4 -12 -2 -8 6 5 8 -3 9 -28 5 -19 -3
-41 -2 -48 3 -21 13 -3 40 30 46 31 7 43 34 14 34 -8 0 -12 -4 -9 -10 3 -6 -1
-7 -10 -4 -17 7 -36 -12 -61 -63 -21 -43 -49 -45 -40 -3 5 27 4 29 -13 21 -13
-7 -17 -18 -14 -36 3 -15 1 -25 -6 -25 -6 0 -11 4 -11 9 0 5 -9 12 -19 16 -11
3 -23 15 -26 26 -4 10 -10 17 -14 14 -14 -8 -61 19 -56 33 2 6 -3 12 -11 12
-15 0 -14 -11 3 -57 3 -8 -3 -13 -17 -13 -11 0 -19 4 -16 9 5 8 -25 21 -50 21
-6 0 -16 -10 -22 -22 l-11 -23 -7 22 c-3 13 -11 23 -16 23 -5 0 -6 -10 -3 -22
l7 -23 -16 22 c-9 12 -15 26 -14 30 2 4 -11 22 -27 40 -42 45 -75 89 -75 100
0 13 -72 75 -79 68 -3 -3 -1 -9 5 -13 6 -4 14 -17 18 -29 4 -13 12 -23 17 -23
6 0 6 -8 -1 -20 -8 -14 -8 -20 0 -20 7 0 9 -8 5 -21 -5 -14 -4 -19 4 -15 7 5
9 1 5 -8 -3 -9 -1 -16 5 -16 6 0 11 -7 11 -15 0 -8 6 -15 13 -15 6 0 -6 -17
-27 -37 -22 -20 -33 -34 -25 -31 8 2 21 -3 30 -13 16 -16 15 -18 -8 -28 -13
-6 -21 -16 -18 -22 5 -7 11 -6 21 2 8 6 17 9 20 6 10 -10 -6 -27 -25 -27 -9 0
-21 -4 -27 -9 -5 -5 -19 -12 -31 -16 -17 -5 -23 -2 -23 9 0 9 -7 16 -16 16
-13 0 -15 -7 -10 -36 4 -19 10 -42 13 -50 8 -21 -115 -16 -127 5 -8 13 -9 12
-10 -6 0 -12 6 -24 13 -27 9 -3 7 -9 -6 -19 -10 -9 -17 -19 -15 -23 2 -5 -6
-10 -17 -12 -30 -6 -40 -19 -25 -37 20 -24 -13 -67 -45 -59 -22 5 -25 3 -25
-21 0 -20 4 -26 14 -22 10 4 13 1 9 -9 -6 -17 -15 -18 -31 -2 -9 9 -12 7 -12
-11 0 -16 -4 -21 -15 -17 -8 3 -15 2 -15 -3 0 -5 9 -11 20 -14 26 -7 25 -23
-1 -38 -24 -12 -42 3 -32 28 3 7 0 13 -6 13 -6 0 -11 -4 -11 -10 0 -5 -12 -13
-26 -16 -14 -4 -22 -9 -16 -13 5 -3 13 -21 17 -40 5 -24 10 -30 16 -20 4 7 11
11 14 7 4 -3 16 3 28 15 l22 22 3 -28 c3 -22 7 -27 22 -22 10 3 21 1 25 -5 3
-5 19 -8 35 -5 16 3 32 1 35 -5 3 -5 19 -10 35 -10 34 0 53 37 26 52 -9 5 -16
16 -16 23 0 20 56 20 64 0 3 -8 14 -15 26 -15 20 0 20 0 0 -35 -11 -20 -20
-42 -20 -50 0 -8 -9 -15 -21 -15 -12 0 -17 -4 -14 -11 4 -6 13 -8 21 -5 19 7
45 -4 38 -16 -4 -6 -1 -14 6 -18 18 -11 23 -69 8 -88 -10 -12 -10 -14 -1 -8 7
4 21 3 30 -3 16 -8 15 -11 -10 -20 -15 -6 -39 -14 -52 -17 -27 -7 -34 -24 -10
-24 8 0 15 -7 15 -16 0 -12 6 -15 25 -10 36 9 31 -9 -6 -25 -30 -12 -31 -13
-10 -21 l22 -8 -21 -30 c-12 -16 -26 -30 -32 -30 -6 0 -6 6 2 15 9 10 9 15 1
15 -6 0 -11 -5 -11 -11 0 -5 -10 -3 -22 5 -12 9 -29 16 -38 16 -8 -1 0 -7 18
-15 37 -16 38 -38 4 -43 -21 -3 -32 -32 -12 -32 6 0 10 -6 10 -14 0 -8 -15
-17 -35 -20 -19 -4 -35 -10 -35 -14 0 -4 -15 -12 -33 -17 -22 -7 -33 -17 -35
-33 -2 -12 -16 -30 -30 -40 -35 -21 -42 -32 -42 -61 0 -19 -4 -22 -21 -18 -15
4 -23 0 -26 -14 -3 -10 -9 -19 -14 -19 -5 0 -6 -7 -3 -15 4 -9 0 -15 -10 -15
-15 0 -16 -94 -16 -1075 0 -1062 0 -1075 20 -1095 11 -11 26 -20 34 -20 7 0
19 -7 26 -15 7 -8 19 -15 28 -15 13 0 12 -3 -3 -20 -16 -18 -16 -20 -2 -20 10
0 17 5 17 10 0 6 7 10 15 10 8 0 15 -7 15 -15 0 -8 6 -12 14 -9 8 3 26 -2 41
-12 l26 -17 -22 -23 c-23 -25 -42 -24 -33 1 4 8 11 12 16 9 6 -4 9 -1 6 6 -7
23 -25 22 -31 -1 -6 -23 -27 -18 -27 7 0 11 -9 13 -35 11 -39 -5 -53 -13 -40
-24 4 -5 10 -2 12 5 6 16 23 15 23 -2 0 -7 -16 -26 -35 -40 -19 -15 -35 -23
-35 -17 0 5 5 13 10 16 5 3 10 13 10 22 0 13 -5 12 -25 -7 l-25 -23 0 -1569 0
-1568 3539 0 3538 0 24 31 c13 18 23 38 21 46 -2 8 1 12 7 9 5 -3 12 7 16 24
4 17 14 44 22 61 12 24 18 28 25 18 8 -11 9 -10 4 4 -8 25 3 47 22 40 13 -3
14 -2 4 4 -7 6 -10 17 -6 27 5 14 9 15 15 4 6 -9 9 -7 9 10 0 12 5 22 11 22 5
0 7 5 4 10 -11 18 6 50 27 50 11 0 18 5 15 13 -2 6 0 20 5 29 6 12 5 18 -3 18
-7 0 -10 3 -7 6 4 3 16 0 28 -6 20 -11 21 -10 15 9 -7 22 10 30 18 9 3 -9 10
-7 21 7 17 23 21 39 6 30 -6 -3 -10 2 -11 12 0 10 -3 13 -6 6 -8 -22 -23 -14
-23 11 0 13 6 27 12 29 10 4 10 7 1 14 -10 7 -10 13 2 29 8 10 15 29 15 42 0
12 4 22 10 22 5 0 7 -8 3 -17 -5 -14 -3 -15 6 -7 10 9 10 16 -1 34 -10 18 -10
24 -1 27 7 3 13 19 13 36 0 18 5 48 10 67 20 69 32 219 35 455 2 132 9 368 16
525 12 304 5 611 -16 720 -3 14 -10 68 -15 120 -5 52 -12 109 -14 125 -3 17
-12 71 -20 120 -32 198 -55 316 -121 615 -27 123 -46 225 -70 375 -14 83 -36
200 -50 260 -15 61 -30 137 -35 170 -9 59 -34 181 -65 320 -9 39 -32 147 -51
240 -19 94 -39 186 -44 205 -40 152 -111 454 -116 495 -4 28 -11 53 -16 56 -5
3 -13 31 -18 63 -5 31 -13 72 -19 89 -5 18 -19 82 -31 142 -38 192 -58 279
-69 308 -11 27 -15 97 -7 97 2 0 35 -18 74 -40 38 -22 74 -40 81 -40 6 0 11
-5 11 -10 0 -6 10 -15 23 -20 12 -5 40 -21 62 -34 22 -14 92 -50 155 -81 63
-31 123 -60 132 -65 10 -6 23 -10 29 -10 6 0 25 -6 42 -14 73 -33 321 -116
612 -204 173 -53 262 -73 565 -132 274 -53 770 -60 950 -13 30 8 66 16 80 18
82 13 278 84 313 113 22 19 96 42 112 36 9 -4 15 0 15 10 0 11 9 16 26 16 21
0 24 -3 15 -14 -9 -11 -7 -15 9 -19 14 -3 20 -13 20 -32 0 -22 3 -25 20 -20
17 5 20 2 20 -24 0 -17 -5 -31 -12 -31 -6 0 -3 -9 7 -20 15 -17 16 -24 7 -45
-9 -19 -8 -34 3 -66 9 -24 12 -46 7 -53 -11 -13 -8 -194 3 -220 6 -14 5 -17
-4 -11 -8 4 -17 2 -22 -6 -13 -21 -11 -39 6 -39 8 0 15 -5 15 -12 0 -18 -65
-74 -102 -88 -118 -44 -135 -59 -68 -61 63 -3 64 -3 80 -21 11 -11 21 -14 35
-8 19 8 19 9 -2 9 -26 1 -31 26 -7 35 37 14 42 8 37 -44 -3 -32 -1 -50 6 -50
6 0 11 -16 11 -35 0 -23 6 -38 16 -42 8 -3 13 -12 10 -19 -3 -8 0 -14 8 -14
27 0 56 -45 56 -88 0 -22 5 -44 10 -47 6 -3 7 -17 4 -30 -7 -30 12 -65 36 -65
19 0 33 -26 28 -51 -2 -7 8 -16 22 -20 21 -6 19 -7 -14 -8 l-39 -1 27 -26 c14
-15 26 -37 26 -50 0 -15 6 -24 15 -24 18 0 20 -16 4 -26 -8 -5 -4 -13 12 -26
15 -12 18 -18 7 -15 -17 6 -28 -10 -21 -30 2 -7 10 -10 18 -7 7 3 16 -3 20
-15 3 -12 13 -21 21 -21 8 0 13 -4 9 -9 -3 -5 0 -21 7 -36 9 -21 9 -28 0 -34
-9 -5 -7 -12 8 -26 11 -10 20 -26 20 -37 0 -10 6 -18 13 -18 7 -1 5 -6 -5 -14
-20 -15 -24 -41 -8 -51 6 -3 10 -1 10 4 0 6 4 11 10 11 6 0 9 -23 7 -55 -3
-38 1 -59 10 -67 8 -6 12 -17 9 -23 -2 -7 9 -32 25 -56 31 -48 36 -69 16 -69
-9 0 -13 -13 -11 -42 2 -24 3 -51 3 -60 1 -21 31 -13 31 8 0 8 5 14 11 14 5 0
7 -5 4 -10 -4 -6 -1 -18 6 -26 7 -9 13 -41 14 -72 1 -31 8 -78 15 -104 12 -43
16 -47 41 -44 39 5 59 -9 38 -26 -18 -15 -35 -53 -18 -43 6 4 8 -2 4 -18 -8
-29 10 -45 20 -19 6 16 7 16 21 -2 8 -11 14 -25 14 -30 0 -6 -5 -4 -10 4 -8
11 -9 8 -4 -11 3 -15 1 -30 -5 -33 -6 -4 -11 -12 -11 -19 0 -6 7 -1 16 11 l16
23 15 -28 c13 -25 12 -29 -4 -41 -16 -11 -16 -14 -3 -22 8 -5 21 -10 28 -10 6
0 12 -7 12 -15 0 -8 -6 -12 -13 -9 -15 5 -44 -23 -34 -33 4 -3 13 0 22 7 13
11 15 8 15 -19 0 -25 4 -31 18 -29 11 2 18 -4 20 -19 2 -15 10 -23 23 -23 19
0 24 -16 13 -44 -7 -18 -34 -22 -34 -5 0 5 -4 7 -10 4 -9 -6 8 -33 20 -33 28
1 32 -2 19 -18 -10 -13 -10 -17 2 -25 8 -5 17 -9 22 -9 4 0 7 -11 7 -24 0 -14
5 -28 10 -31 6 -3 10 -19 10 -36 0 -16 5 -29 10 -29 6 0 10 -18 10 -40 0 -22
5 -40 10 -40 6 0 10 -7 10 -15 0 -8 6 -15 13 -15 12 0 28 -30 42 -77 5 -17 1
-22 -17 -26 l-23 -4 24 -2 c21 -1 23 -5 19 -40 -2 -23 1 -39 7 -38 13 3 18
-39 7 -59 -7 -12 -2 -24 20 -47 28 -32 33 -52 29 -120 -2 -25 5 -47 19 -67 12
-17 17 -30 11 -30 -6 0 -11 -4 -11 -10 0 -5 7 -10 15 -10 8 0 15 -6 16 -12 0
-7 2 -26 2 -43 1 -17 8 -30 15 -30 7 0 17 -7 22 -15 12 -18 13 -33 2 -26 -15
9 4 -95 19 -106 11 -7 11 -11 2 -15 -18 -7 -16 -33 2 -33 9 0 12 -6 9 -15 -4
-8 2 -27 11 -41 13 -20 14 -28 5 -34 -9 -6 -9 -13 3 -31 8 -13 18 -42 22 -63
5 -30 9 -36 17 -25 7 10 8 5 5 -18 -2 -18 1 -34 8 -37 6 -2 12 -29 13 -60 1
-31 6 -65 12 -75 6 -12 6 -22 1 -25 -14 -9 19 -68 34 -62 10 3 12 -21 8 -120
-4 -114 -2 -127 16 -150 17 -22 20 -37 16 -85 -2 -32 -1 -60 4 -63 4 -3 14
-26 21 -51 7 -25 17 -48 21 -51 5 -3 9 -18 9 -34 0 -17 9 -38 21 -49 12 -11
23 -36 26 -63 2 -23 7 -50 10 -58 6 -16 12 -67 13 -112 1 -15 5 -30 11 -33 5
-4 6 -12 2 -18 -10 -16 -10 -77 0 -77 4 0 5 -15 2 -32 -3 -18 -7 -44 -8 -58 0
-14 -4 -27 -9 -30 -4 -3 -8 -41 -9 -85 -1 -44 -6 -85 -10 -90 -7 -9 -5 -95 3
-157 2 -17 243 -18 4895 -18 l4893 0 0 10595 0 10595 -10575 0 -10575 0 0
-6246z m10537 5746 c37 0 73 -33 72 -64 0 -12 -3 -15 -6 -8 -2 6 -9 12 -14 12
-19 0 -129 54 -129 63 0 5 10 7 23 3 12 -3 36 -6 54 -6z m383 -50 c6 -11 8
-20 6 -20 -3 0 -10 9 -16 20 -6 11 -8 20 -6 20 3 0 10 -9 16 -20z m-2730 -10
c0 -6 11 -8 26 -4 24 6 54 7 112 5 12 -1 22 -5 22 -10 0 -14 -173 -7 -178 7
-2 7 1 12 7 12 6 0 11 -5 11 -10z m2625 -10 c18 -8 17 -9 -7 -9 -16 -1 -28 4
-28 9 0 12 8 12 35 0z m-2720 -20 c-20 -22 -40 -26 -50 -10 -6 10 27 28 54 29
11 1 10 -4 -4 -19z m2862 -23 c12 1 24 -6 28 -15 7 -19 4 -22 -29 -28 -18 -3
-26 0 -26 10 0 8 -7 16 -15 20 -8 3 -15 10 -15 17 0 7 7 8 18 3 9 -4 27 -7 39
-7z m-63 -32 c8 -8 17 -15 21 -15 4 0 13 -7 21 -15 9 -8 23 -15 32 -15 23 0
57 -64 54 -100 -3 -33 52 -102 74 -93 10 4 14 -3 14 -22 0 -15 8 -39 18 -53
23 -34 35 -65 22 -57 -6 3 -10 1 -10 -4 0 -22 -2 -26 -15 -33 -7 -5 -11 -17
-8 -28 3 -11 3 -20 -1 -20 -10 0 -36 71 -36 97 0 41 -31 95 -61 107 -15 5 -30
18 -32 28 -3 10 -12 18 -21 18 -9 0 -16 6 -16 13 0 7 -23 35 -51 62 -47 45
-50 50 -29 53 14 2 33 -6 50 -23 19 -18 30 -23 35 -15 4 6 14 9 22 6 9 -4 13
-1 11 6 -3 7 -13 13 -24 13 -10 0 -25 10 -32 23 -8 15 -19 21 -28 18 -11 -4
-14 -1 -9 13 4 14 0 21 -15 26 -11 3 -20 11 -20 16 0 14 17 11 34 -6z m-2933
-39 c-38 -28 -29 -39 23 -25 36 10 56 6 56 -12 0 -5 -11 -9 -24 -9 -13 0 -34
-8 -47 -19 -25 -19 -89 -27 -89 -10 0 5 7 9 15 9 15 0 21 21 9 33 -10 10 -44
-12 -44 -28 0 -8 -5 -15 -11 -15 -6 0 -32 -21 -58 -47 -40 -41 -43 -48 -26
-51 24 -5 45 -22 26 -22 -7 0 -9 -5 -6 -11 13 -21 -5 -59 -27 -59 l-22 0 22
16 c12 8 22 20 22 25 0 11 -62 -29 -68 -43 -2 -4 -15 -8 -28 -8 -13 0 -24 -4
-24 -9 0 -5 -13 -12 -30 -16 -16 -4 -30 -10 -30 -15 0 -4 -13 -13 -30 -20 -29
-12 -42 -40 -19 -40 8 0 7 -6 -2 -17 -13 -15 -12 -15 8 -4 13 6 22 17 20 23
-1 7 12 17 29 23 16 5 43 18 58 29 23 15 30 16 37 5 6 -10 11 -11 17 -3 11 17
72 23 72 8 0 -7 -9 -16 -20 -19 -11 -3 -20 -11 -20 -16 0 -5 -11 -9 -25 -9
-14 0 -25 -4 -25 -10 0 -5 -7 -10 -15 -10 -8 0 -15 4 -15 10 0 5 -12 -3 -27
-19 -35 -36 -145 -93 -157 -81 -11 11 18 42 29 32 5 -4 5 -2 1 5 -11 19 -34 4
-47 -31 -12 -32 -18 -36 -99 -64 -8 -3 -3 7 13 21 15 14 27 29 27 32 0 8 -38
-13 -45 -26 -4 -5 -18 -15 -32 -20 -14 -5 -27 -18 -30 -29 -4 -15 -9 -17 -23
-10 -19 10 -31 1 -44 -35 -6 -16 -9 -17 -16 -5 -8 13 -10 12 -10 -2 0 -10 -6
-18 -14 -18 -7 0 -16 -8 -18 -17 -3 -10 -18 -25 -34 -33 -16 -8 -44 -25 -63
-37 -42 -29 -55 -29 -39 -2 7 12 18 30 25 42 6 11 17 23 24 28 8 4 11 11 7 14
-6 7 -88 -69 -88 -82 0 -4 -14 -17 -30 -28 -33 -22 -37 -36 -15 -59 21 -21 19
-41 -8 -55 -12 -6 -30 -25 -39 -41 -17 -30 -17 -30 6 -24 18 4 3 -16 -55 -78
-43 -46 -79 -89 -79 -96 0 -7 -13 -27 -28 -43 -15 -16 -39 -50 -52 -75 -14
-25 -49 -70 -77 -100 -29 -30 -53 -58 -53 -62 0 -4 -9 -13 -20 -20 -40 -24
-40 0 0 53 51 69 76 130 61 149 -14 16 15 54 130 173 43 46 79 85 79 88 0 2
-16 -3 -37 -13 -26 -12 -37 -14 -40 -5 -5 13 -92 -47 -168 -115 -7 -6 -16 -8
-19 -3 -14 21 26 62 128 130 78 52 129 95 172 145 34 39 74 78 90 86 50 25 65
41 53 56 -9 10 -7 15 4 20 8 3 18 17 21 30 4 14 11 22 17 19 5 -4 26 10 47 29
20 20 42 36 49 36 7 0 13 4 13 9 0 5 9 11 20 14 34 9 23 -15 -24 -51 -16 -13
-23 -22 -14 -22 8 0 23 8 34 18 10 10 34 27 52 37 17 11 32 23 32 27 0 4 4 8
9 8 13 0 95 56 112 76 7 9 25 21 39 26 15 6 20 12 12 15 -7 3 -19 0 -27 -7
-15 -12 -35 -6 -35 11 0 5 12 15 28 21 15 7 37 21 50 32 15 14 22 15 22 6 0
-9 8 -6 24 9 16 15 34 22 53 20 15 -2 38 2 50 9 12 7 29 12 37 12 16 0 24 7
81 70 28 31 28 32 8 27 -13 -3 -23 -2 -23 3 0 8 34 22 59 24 8 1 21 15 30 33
17 34 34 45 126 78 79 29 85 29 46 1z m2749 -22 c0 -8 -4 -12 -10 -9 -5 3 -10
10 -10 16 0 5 5 9 10 9 6 0 10 -7 10 -16z m375 -65 c9 -17 14 -36 12 -42 -4
-12 -37 44 -37 63 0 18 9 11 25 -21z m35 21 c0 -5 -2 -10 -4 -10 -3 0 -8 5
-11 10 -3 6 -1 10 4 10 6 0 11 -4 11 -10z m-3045 -30 c-9 -10 -20 -18 -24 -18
-3 1 -16 -2 -29 -6 -43 -14 -36 3 9 23 57 25 66 26 44 1z m-345 6 c0 -3 -4 -8
-10 -11 -5 -3 -10 -1 -10 4 0 6 5 11 10 11 6 0 10 -2 10 -4z m500 -6 c-20 -13
-43 -13 -35 0 3 6 16 10 28 10 18 0 19 -2 7 -10z m-60 -10 c0 -5 -5 -10 -11
-10 -5 0 -7 5 -4 10 3 6 8 10 11 10 2 0 4 -4 4 -10z m-190 -24 c0 -2 -9 -6
-20 -9 -11 -3 -18 -1 -14 4 5 9 34 13 34 5z m-90 -41 c-7 -9 -15 -13 -17 -11
-7 7 7 26 19 26 6 0 6 -6 -2 -15z m3090 -26 c0 -6 -4 -7 -10 -4 -5 3 -10 11
-10 16 0 6 5 7 10 4 6 -3 10 -11 10 -16z m-2910 7 c0 -3 -4 -8 -10 -11 -5 -3
-10 -1 -10 4 0 6 5 11 10 11 6 0 10 -2 10 -4z m80 -26 c0 -5 -6 -10 -12 -10
-7 0 -24 -3 -38 -5 -22 -5 -21 -3 5 9 36 18 45 19 45 6z m3138 -26 c-4 -3 -12
5 -18 18 -12 22 -12 22 6 6 10 -10 15 -20 12 -24z m-283 16 c3 -5 3 -15 -1
-21 -6 -11 -23 6 -24 24 0 10 18 9 25 -3z m-3058 -32 c-3 -7 -5 -2 -5 12 0 14
2 19 5 13 2 -7 2 -19 0 -25z m-42 -7 c-8 -14 -76 -43 -83 -36 -3 3 0 5 6 5 7
0 11 6 10 12 -2 7 8 14 22 16 14 2 29 8 34 13 12 11 20 4 11 -10z m4270 -41
c3 -5 2 -10 -4 -10 -5 0 -13 5 -16 10 -3 6 -2 10 4 10 5 0 13 -4 16 -10z
m-4836 -73 c-6 -13 -23 -31 -39 -40 -27 -16 -28 -16 -23 3 3 11 10 23 16 27 6
3 7 1 3 -5 -4 -7 -3 -12 2 -12 5 0 14 11 20 25 6 14 16 25 22 25 6 0 6 -8 -1
-23z m3701 -12 c0 -13 4 -25 8 -27 5 -1 12 -15 16 -30 5 -21 3 -28 -9 -28 -22
0 -18 -17 5 -23 19 -5 21 -12 18 -73 -2 -43 -8 -69 -15 -72 -19 -6 -28 27 -15
49 15 23 16 79 2 79 -5 0 -10 -6 -10 -12 0 -9 -4 -8 -10 2 -13 20 -13 173 0
165 6 -3 10 -17 10 -30z m-3660 21 c0 -3 -4 -8 -10 -11 -5 -3 -10 -1 -10 4 0
6 5 11 10 11 6 0 10 -2 10 -4z m3826 -32 c-9 -8 -16 -20 -16 -26 0 -6 -3 -9
-6 -6 -8 9 14 48 27 48 6 0 3 -7 -5 -16z m-3991 -24 c-3 -5 -12 -10 -18 -10
-7 0 -6 4 3 10 19 12 23 12 15 0z m545 -30 c0 -5 -5 -10 -11 -10 -5 0 -7 5 -4
10 3 6 8 10 11 10 2 0 4 -4 4 -10z m3420 -26 c0 -8 7 -14 15 -14 8 0 15 -4 15
-10 0 -13 -6 -13 -31 0 -10 6 -19 20 -19 31 0 11 5 17 10 14 6 -3 10 -13 10
-21z m-4050 6 c0 -5 -5 -10 -11 -10 -5 0 -7 5 -4 10 3 6 8 10 11 10 2 0 4 -4
4 -10z m590 -4 c0 -2 -7 -9 -15 -16 -13 -11 -14 -10 -9 4 5 14 24 23 24 12z
m-625 -16 c-3 -5 -16 -15 -28 -21 -22 -12 -22 -12 -3 10 19 21 43 30 31 11z
m4196 -120 c5 -3 9 -33 10 -65 1 -33 5 -62 9 -65 4 -3 4 -29 0 -58 -3 -29 -3
-55 1 -57 7 -5 -12 -55 -21 -55 -3 0 -6 12 -6 28 -3 70 -13 127 -23 130 -8 3
-8 9 0 23 7 15 6 39 -7 90 -13 53 -14 73 -5 82 6 6 12 20 12 32 1 11 6 -2 12
-30 5 -27 14 -52 18 -55z m-73 50 c-9 -14 -14 -16 -20 -7 -13 20 -9 27 12 27
18 0 19 -3 8 -20z m-3108 -20 c0 -12 -28 -25 -36 -17 -9 9 6 27 22 27 8 0 14
-5 14 -10z m3120 -50 c0 -13 -1 -13 -10 0 -5 8 -10 22 -10 30 0 13 1 13 10 0
5 -8 10 -22 10 -30z m7 -57 c-3 -10 -5 -4 -5 12 0 17 2 24 5 18 2 -7 2 -21 0
-30z m-4137 -53 c0 -5 -4 -10 -10 -10 -5 0 -10 5 -10 10 0 6 5 10 10 10 6 0
10 -4 10 -10z m-70 -39 c0 -13 -29 -35 -37 -28 -7 8 15 37 28 37 5 0 9 -4 9
-9z m86 -19 c-8 -13 -65 -21 -72 -10 -3 4 11 8 30 8 21 0 36 5 36 12 0 6 3 9
6 5 3 -3 3 -10 0 -15z m758 -17 c-4 -8 -11 -15 -16 -15 -6 0 -5 6 2 15 7 8 14
15 16 15 2 0 1 -7 -2 -15z m3353 -17 c-3 -8 -6 -5 -6 6 -1 11 2 17 5 13 3 -3
4 -12 1 -19z m-277 5 c0 -5 -4 -14 -9 -21 -7 -11 -9 -11 -14 1 -3 8 -3 18 0
21 9 8 23 7 23 -1z m-4325 -38 c-29 -24 -55 -32 -55 -17 0 7 58 39 75 40 6 1
-3 -10 -20 -23z m5292 -67 c-3 -8 -6 -5 -6 6 -1 11 2 17 5 13 3 -3 4 -12 1
-19z m-5277 4 c0 -10 -60 -46 -66 -39 -3 2 10 14 28 26 38 24 38 24 38 13z
m4640 -12 c0 -5 -5 -10 -11 -10 -5 0 -7 5 -4 10 3 6 8 10 11 10 2 0 4 -4 4
-10z m-4126 -25 c-4 -8 -10 -15 -15 -15 -4 0 -6 7 -3 15 4 8 10 15 15 15 4 0
6 -7 3 -15z m-445 -44 c-13 -16 -29 -30 -36 -30 -6 -1 -13 -6 -15 -13 -3 -9
-6 -9 -11 -1 -4 7 -2 16 5 22 7 6 27 21 43 35 38 31 44 25 14 -13z m-169 5 c0
-3 -4 -8 -10 -11 -5 -3 -10 -1 -10 4 0 6 5 11 10 11 6 0 10 -2 10 -4z m590 0
c0 -3 -4 -8 -10 -11 -5 -3 -10 -1 -10 4 0 6 5 11 10 11 6 0 10 -2 10 -4z
m-813 -62 c29 -4 50 -11 47 -15 -8 -13 -111 -9 -169 6 l-50 13 60 1 c33 0 84
-2 112 -5z m308 -4 c-3 -5 -1 -10 5 -10 6 0 8 -4 5 -10 -3 -5 -28 -10 -55 -10
-27 0 -52 -4 -55 -10 -3 -5 -11 -10 -16 -10 -6 0 -7 5 -3 11 3 6 -1 10 -12 9
-11 -1 -23 -1 -29 0 -5 1 -14 3 -20 5 -5 1 -21 3 -35 4 l-25 3 25 7 c30 8 134
6 149 -4 14 -8 51 3 51 16 0 5 5 9 11 9 5 0 7 -4 4 -10z m5637 -62 c-6 -6 -16
-8 -22 -6 -9 3 -7 9 6 22 13 13 19 15 22 6 2 -6 0 -16 -6 -22z m-4972 8 c0 -2
-7 -6 -15 -10 -8 -3 -15 -1 -15 4 0 6 7 10 15 10 8 0 15 -2 15 -4z m3950 -22
c0 -8 -5 -12 -10 -9 -6 4 -8 11 -5 16 9 14 15 11 15 -7z m-5305 -4 c-11 -5
-27 -9 -35 -9 -13 -1 -13 0 0 9 8 5 24 9 35 9 l20 0 -20 -9z m1325 -8 c0 -5
-29 -37 -65 -71 -36 -35 -65 -64 -65 -67 0 -11 -35 -42 -42 -38 -4 3 -8 -2 -8
-11 0 -9 -25 -42 -55 -74 -30 -32 -55 -65 -55 -73 0 -17 -56 -68 -128 -119
-24 -16 -46 -37 -49 -45 -3 -8 -18 -27 -32 -42 -15 -15 -32 -36 -39 -47 -8
-15 -14 -17 -23 -8 -9 9 -4 19 20 45 17 18 50 61 73 95 24 33 57 71 75 83 31
21 31 23 17 46 -15 22 -14 25 16 54 31 30 50 38 50 20 0 -5 -3 -10 -8 -10 -4
0 -12 -10 -17 -22 -6 -13 -16 -22 -23 -20 -14 2 -16 -14 -3 -23 9 -5 161 143
161 157 0 4 5 8 10 8 6 0 10 7 10 15 0 9 8 19 18 22 9 4 42 32 73 63 31 31 62
54 69 52 8 -3 10 0 6 7 -4 6 -2 11 3 11 6 0 11 -4 11 -8z m-300 -6 c0 -3 -4
-8 -10 -11 -5 -3 -10 -1 -10 4 0 6 5 11 10 11 6 0 10 -2 10 -4z m-382 -64
c-13 -15 -30 -40 -37 -56 -10 -24 -14 -27 -22 -15 -8 12 -13 10 -28 -8 -11
-13 -23 -23 -28 -23 -4 0 -21 -16 -36 -35 -15 -19 -33 -35 -39 -35 -6 0 1 12
16 26 27 28 37 55 11 34 -12 -10 -15 -9 -15 6 0 11 9 25 20 32 11 7 20 18 20
25 1 15 84 66 122 74 15 3 28 11 29 17 0 6 3 5 6 -2 3 -8 -6 -26 -19 -40z
m221 14 c-12 -14 -27 -26 -33 -26 -5 0 3 13 19 30 34 36 46 33 14 -4z m71 25
c0 -6 -4 -13 -10 -16 -5 -3 -10 1 -10 9 0 9 5 16 10 16 6 0 10 -4 10 -9z
m4597 -33 c-3 -8 -6 -5 -6 6 -1 11 2 17 5 13 3 -3 4 -12 1 -19z m-4631 -3 c-3
-10 1 -18 11 -22 9 -4 19 -1 21 5 4 13 42 17 42 4 0 -4 -9 -13 -20 -20 -12 -7
-18 -17 -15 -22 8 -13 -126 -152 -140 -146 -6 2 -21 -7 -34 -20 -13 -13 -27
-24 -32 -24 -5 0 -14 -12 -20 -26 -5 -15 -12 -24 -16 -21 -3 4 2 22 11 41 9
19 16 38 16 43 0 4 29 40 64 78 35 39 62 73 60 77 -6 9 37 68 49 68 5 0 6 -7
3 -15z m1724 -25 c0 -5 -2 -10 -4 -10 -3 0 -8 5 -11 10 -3 6 -1 10 4 10 6 0
11 -4 11 -10z m5369 -194 c8 -13 11 -30 9 -38 -3 -8 -11 -1 -21 19 -19 36 -20
43 -9 43 5 0 14 -11 21 -24z m-7089 10 c0 -2 -8 -10 -17 -17 -16 -13 -17 -12
-4 4 13 16 21 21 21 13z m-702 -32 c-16 -8 -28 -19 -28 -24 0 -6 -12 -10 -27
-10 -27 1 -27 1 12 25 22 14 47 25 55 25 8 -1 3 -8 -12 -16z m242 -26 c0 -16
-3 -19 -11 -11 -6 6 -8 16 -5 22 11 17 16 13 16 -11z m47 0 c-3 -8 -6 -5 -6 6
-1 11 2 17 5 13 3 -3 4 -12 1 -19z m373 18 c0 -2 -7 -9 -15 -16 -13 -11 -14
-10 -9 4 5 14 24 23 24 12z m57 -15 c-4 -15 -1 -18 12 -13 14 5 14 4 2 -11
-10 -13 -17 -14 -26 -7 -10 8 -22 -2 -50 -45 -35 -52 -55 -74 -55 -60 0 7 40
66 50 75 3 3 19 22 34 43 32 41 41 46 33 18z m6682 -77 c34 -95 44 -199 16
-170 -8 8 -22 43 -30 78 -8 36 -22 84 -30 108 -15 44 -14 70 3 70 5 0 23 -39
41 -86z m-7496 -4 c-20 -27 -43 -50 -50 -50 -7 0 -13 -6 -13 -12 0 -15 -69
-73 -77 -65 -3 3 7 21 21 40 20 26 23 36 14 40 -9 4 -8 6 3 6 9 1 29 15 45 31
54 57 58 60 76 60 15 0 12 -9 -19 -50z m357 37 c0 -8 -9 -22 -20 -32 -21 -19
-24 -15 -14 23 7 24 34 31 34 9z m-183 -37 c3 -10 2 -11 -4 -4 -4 6 -15 14
-23 17 -11 5 -9 6 4 4 11 -1 21 -9 23 -17z m123 -26 c0 -11 -60 -26 -69 -18
-2 2 1 10 8 18 14 16 61 16 61 0z m6096 0 c18 -14 18 -14 -6 -3 -31 14 -36 19
-24 19 6 0 19 -7 30 -16z m-4726 -11 c0 -4 -12 -20 -27 -35 -22 -23 -24 -28
-10 -28 10 0 30 7 45 17 26 15 25 15 -3 -10 -16 -15 -58 -50 -93 -79 -35 -29
-96 -83 -135 -121 -42 -39 -79 -66 -88 -63 -10 2 -34 -20 -65 -60 -27 -35 -52
-64 -56 -64 -18 0 -4 26 52 101 33 44 60 83 60 87 0 4 11 19 25 34 14 15 25
30 25 34 0 4 10 15 22 26 17 14 23 16 30 6 6 -10 13 -6 30 13 13 14 40 36 61
50 20 13 40 32 43 42 3 9 13 17 22 17 10 0 23 9 30 20 12 19 32 27 32 13z
m560 -83 c0 -38 -5 -52 -22 -67 -25 -19 -36 -53 -18 -53 6 0 15 12 21 27 8 22
12 24 19 13 15 -23 12 -52 -7 -66 -14 -11 -15 -15 -5 -22 10 -7 5 -17 -18 -43
-16 -19 -30 -30 -30 -26 0 4 -14 -8 -31 -27 -17 -20 -28 -40 -25 -45 4 -5 -6
-35 -21 -65 -29 -61 -27 -77 7 -49 33 27 41 36 90 98 68 86 122 146 128 141 2
-3 -12 -25 -32 -49 -20 -24 -36 -49 -36 -54 0 -5 -9 -18 -20 -28 -11 -10 -20
-23 -20 -29 0 -6 -15 -29 -33 -52 -17 -22 -41 -58 -51 -80 -10 -21 -23 -46
-27 -54 -38 -71 -69 -146 -65 -157 3 -7 19 -13 36 -13 16 0 30 -4 30 -10 0
-15 -33 -12 -58 6 -12 8 -27 12 -32 9 -14 -9 -12 -32 3 -39 9 -5 9 -7 -2 -12
-11 -5 -11 -8 0 -15 11 -7 9 -10 -8 -15 -27 -8 -61 -54 -39 -54 7 0 19 7 26
15 16 19 44 20 37 1 -5 -13 12 -26 33 -26 5 0 23 14 41 31 17 17 33 28 36 25
9 -8 -50 -63 -77 -71 -23 -7 -23 -8 -5 -21 18 -13 18 -14 1 -14 -15 0 -16 -3
-6 -15 7 -8 21 -15 31 -15 10 0 21 -5 25 -11 5 -8 -3 -10 -25 -7 -18 3 -34 1
-37 -4 -3 -4 -20 -8 -39 -8 -30 0 -39 -7 -86 -72 -29 -40 -54 -67 -57 -60 -2
6 17 39 43 71 l46 60 -26 7 c-26 7 -133 -2 -162 -13 -11 -4 -14 -2 -11 8 3 8
23 18 46 23 23 5 42 13 42 19 0 10 -159 4 -244 -10 -28 -4 -37 -2 -32 6 4 6
11 9 16 6 5 -3 24 2 41 10 17 9 43 19 58 21 43 8 70 31 64 54 -3 12 0 20 7 20
7 0 10 -7 7 -14 -7 -19 25 -30 60 -21 19 4 23 9 14 18 -16 16 -14 40 3 34 11
-4 13 -1 9 10 -4 10 -2 14 4 10 5 -4 20 4 33 18 17 18 21 31 17 52 -4 15 -4
22 -1 16 8 -19 34 -16 41 5 3 9 13 25 21 35 8 9 12 20 8 24 -3 4 -13 -3 -22
-15 -19 -27 -37 -29 -29 -2 3 11 2 20 -3 20 -6 0 -8 10 -4 22 3 14 2 19 -6 14
-7 -4 -12 -3 -12 3 0 5 5 13 10 16 6 3 10 15 10 25 0 10 6 25 13 32 47 49 87
104 87 120 0 9 9 37 19 60 11 24 24 62 30 85 8 27 19 44 32 48 22 7 59 60 59
86 0 8 5 20 12 27 12 12 35 69 45 109 9 38 23 15 23 -37z m-2020 21 c0 -13
-26 -32 -33 -24 -8 7 11 33 24 33 5 0 9 -4 9 -9z m2990 -42 c0 -11 -4 -17 -10
-14 -5 3 -10 15 -10 26 0 11 5 17 10 14 6 -3 10 -15 10 -26z m-3090 -39 c-6
-11 -15 -20 -20 -20 -14 0 -12 6 6 24 21 22 27 20 14 -4z m7385 -20 c-3 -5
-10 -10 -16 -10 -5 0 -9 5 -9 10 0 6 7 10 16 10 8 0 12 -4 9 -10z m-6205 -10
c0 -5 -5 -10 -11 -10 -5 0 -7 5 -4 10 3 6 8 10 11 10 2 0 4 -4 4 -10z m-1227
-15 c-3 -9 -8 -14 -10 -11 -3 3 -2 9 2 15 9 16 15 13 8 -4z m6722 -5 c3 -5 1
-10 -4 -10 -6 0 -11 5 -11 10 0 6 2 10 4 10 3 0 8 -4 11 -10z m-6197 -40 c-24
-32 -60 -60 -79 -60 -8 0 -8 4 1 15 7 8 19 15 26 15 8 0 14 6 14 14 0 14 36
46 53 46 4 0 -2 -14 -15 -30z m6140 -19 c19 -16 30 -31 25 -34 -8 -5 -73 47
-73 58 0 11 17 3 48 -24z m-5458 -6 c-7 -9 -15 -13 -18 -10 -3 2 1 11 8 20 7
9 15 13 18 10 3 -2 -1 -11 -8 -20z m632 9 c3 -3 -10 -21 -28 -41 -19 -20 -34
-42 -34 -50 0 -7 -7 -16 -15 -19 -9 -4 -24 -25 -35 -49 -10 -23 -36 -55 -57
-71 -44 -33 -72 -64 -73 -80 0 -7 -17 -27 -38 -45 -21 -19 -47 -47 -57 -62
-23 -35 -32 -28 -12 10 9 15 20 42 26 60 19 62 152 228 221 276 14 10 19 15
13 12 -16 -8 -17 11 -2 21 6 3 15 0 20 -7 7 -11 9 -12 9 -1 0 8 10 22 23 33
24 20 31 22 39 13z m4928 -14 c0 -5 -2 -10 -4 -10 -3 0 -8 5 -11 10 -3 6 -1
10 4 10 6 0 11 -4 11 -10z m-5988 -26 c-6 -32 -17 -35 -17 -3 0 16 5 27 10 25
6 -1 8 -12 7 -22z m-888 -6 c-24 -41 -47 -67 -55 -63 -10 7 38 75 53 75 5 0 6
-6 2 -12z m1235 -5 c-19 -24 -42 -42 -53 -43 -6 0 3 14 19 30 31 32 57 42 34
13z m698 -64 c-41 -38 -58 -61 -63 -87 -10 -53 -170 -252 -203 -252 -9 0 -23
-6 -30 -12 -23 -21 21 52 78 132 54 74 181 223 229 268 18 17 28 20 35 13 8
-8 -5 -26 -46 -62z m4983 42 c16 -30 12 -36 -10 -16 -21 19 -26 35 -10 35 5 0
14 -9 20 -19z m-6250 -16 c-7 -8 -17 -15 -23 -15 -6 0 -2 7 9 15 25 19 30 19
14 0z m601 -2 c-19 -7 -60 -55 -61 -69 0 -14 -38 -49 -46 -42 -8 9 31 76 57
98 12 11 31 20 43 19 14 0 16 -3 7 -6z m977 -18 c-11 -24 -38 -35 -38 -16 0 8
38 41 47 41 1 0 -3 -11 -9 -25z m5602 -5 c0 -4 16 -15 35 -24 19 -9 35 -21 35
-27 0 -6 -4 -8 -10 -4 -8 5 15 -88 27 -107 2 -5 -2 -8 -10 -8 -8 0 -17 7 -21
15 -8 22 -26 18 -26 -5 0 -32 -17 -23 -45 23 -31 54 -31 61 0 53 29 -7 30 -4
11 27 -7 12 -16 34 -20 49 -5 22 -3 26 9 22 8 -4 15 -10 15 -14z m-6680 -19
c-6 -12 -17 -21 -25 -21 -22 0 -18 18 5 25 11 3 20 11 20 17 0 6 3 9 6 6 3 -4
1 -16 -6 -27z m1612 7 c-7 -7 -12 -8 -12 -2 0 14 12 26 19 19 2 -3 -1 -11 -7
-17z m-1067 2 c-3 -5 -12 -10 -18 -10 -7 0 -6 4 3 10 19 12 23 12 15 0z m5247
-35 c9 -20 9 -20 -6 -1 -9 11 -16 27 -15 35 0 14 1 14 6 1 3 -8 10 -24 15 -35z
m116 -16 c17 -12 32 -25 32 -30 0 -5 -25 7 -55 27 -30 20 -55 41 -55 47 0 5
10 2 23 -7 12 -9 37 -26 55 -37z m-4368 36 c0 -2 -9 -9 -20 -15 -12 -6 -20 -7
-20 -1 0 5 8 12 18 14 9 3 18 5 20 6 1 0 2 -1 2 -4z m56 -40 c-4 -14 -11 -23
-16 -20 -6 3 -5 16 2 30 14 31 23 25 14 -10z m344 10 c0 -8 -4 -15 -9 -15 -13
0 -22 16 -14 24 11 11 23 6 23 -9z m-2873 -22 c-8 -10 -31 -26 -49 -36 -29
-17 -28 -14 12 21 44 40 68 49 37 15z m1768 -5 c-2 -18 -3 -36 -4 -39 -1 -3
-17 -27 -37 -53 -21 -27 -33 -53 -30 -62 3 -9 -7 -34 -22 -57 -16 -23 -36 -60
-44 -82 -19 -48 -43 -63 -27 -16 6 17 15 31 20 31 5 0 9 9 9 21 0 11 -4 17
-10 14 -6 -4 5 24 25 61 19 38 35 77 35 88 0 17 -4 15 -31 -12 -18 -18 -34
-30 -37 -28 -7 8 37 73 53 80 9 3 20 17 25 31 5 14 18 28 27 31 10 3 25 9 33
14 8 5 16 9 16 9 1 1 0 -14 -1 -31z m-1535 -13 c-13 -14 -28 -25 -33 -25 -6 0
2 11 17 25 15 14 30 25 33 25 4 0 -4 -11 -17 -25z m800 15 c0 -5 -4 -10 -10
-10 -5 0 -10 5 -10 10 0 6 5 10 10 10 6 0 10 -4 10 -10z m350 -15 c-7 -8 -20
-15 -29 -15 -13 1 -13 3 3 15 26 19 42 19 26 0z m5359 -15 c6 0 11 -6 11 -13
0 -28 -14 -26 -32 3 -21 35 -24 53 -4 28 7 -10 18 -18 25 -18z m-4809 16 c0
-3 -4 -8 -10 -11 -5 -3 -10 -1 -10 4 0 6 5 11 10 11 6 0 10 -2 10 -4z m-785
-88 c-16 -23 -16 -23 -10 7 4 17 10 39 13 50 6 17 7 16 10 -7 2 -15 -4 -38
-13 -50z m-70 40 c-10 -31 -25 -47 -25 -26 0 24 11 48 22 48 5 0 6 -10 3 -22z
m185 12 c0 -5 -5 -10 -11 -10 -5 0 -7 5 -4 10 3 6 8 10 11 10 2 0 4 -4 4 -10z
m1284 -19 c-11 -10 -31 -24 -43 -31 -36 -19 -22 10 15 31 39 23 52 23 28 0z
m-2634 5 c0 -3 -4 -8 -10 -11 -5 -3 -10 -1 -10 4 0 6 5 11 10 11 6 0 10 -2 10
-4z m7863 -21 c10 -14 14 -25 10 -25 -10 1 -53 36 -53 44 0 15 27 3 43 -19z
m-8095 3 c-2 -6 -15 -18 -28 -27 l-24 -16 18 28 c18 27 41 38 34 15z m1122 7
c0 -3 -10 -16 -23 -28 -80 -76 -97 -90 -103 -84 -3 3 20 31 52 61 55 51 74 64
74 51z m1216 -32 c-11 -11 -17 4 -9 23 7 18 8 18 11 1 2 -10 1 -21 -2 -24z
m5464 27 c0 -5 -2 -10 -4 -10 -3 0 -8 5 -11 10 -3 6 -1 10 4 10 6 0 11 -4 11
-10z m-7147 -7 c-7 -2 -19 -2 -25 0 -7 3 -2 5 12 5 14 0 19 -2 13 -5z m6407
-43 c0 -16 32 -41 46 -36 8 3 14 1 14 -4 0 -5 -9 -11 -20 -15 -14 -5 -28 3
-52 31 -52 58 -56 68 -19 49 17 -8 31 -20 31 -25z m-6890 25 c0 -2 -10 -9 -22
-15 -22 -11 -22 -10 -4 4 21 17 26 19 26 11z m2849 -35 c-7 -5 -18 -6 -24 -2
-6 4 -3 8 8 10 9 2 17 9 18 15 0 7 3 7 6 -2 3 -7 -1 -17 -8 -21z m5146 -12
c34 -30 51 -64 19 -38 -13 12 -14 10 -3 -14 7 -15 18 -25 25 -22 8 3 11 0 8
-9 -3 -8 1 -12 13 -12 13 2 18 -5 18 -25 1 -29 15 -53 15 -25 0 10 3 17 7 17
10 0 43 -32 43 -42 0 -5 12 -27 27 -50 15 -22 28 -52 29 -67 1 -14 3 -26 4
-26 1 0 3 -14 5 -32 2 -20 -3 -34 -11 -37 -9 -4 -13 2 -11 17 2 23 -22 31 -35
12 -4 -5 -8 3 -8 19 0 16 -10 43 -23 60 -12 17 -31 51 -42 76 -10 25 -38 66
-62 92 -41 45 -55 78 -32 78 5 0 7 5 4 10 -4 6 -10 8 -15 5 -8 -5 -20 17 -20
36 0 15 9 11 45 -23z m-631 -17 c74 -37 216 -143 216 -162 0 -5 -11 -9 -25 -9
-17 0 -23 -4 -19 -14 8 -22 -15 -29 -39 -12 -12 9 -33 24 -46 33 l-24 18 7
-29 c6 -26 5 -28 -8 -17 -24 20 -21 -7 3 -27 19 -17 38 -72 25 -72 -9 0 -48
45 -52 59 -1 7 -11 25 -21 39 -10 15 -31 47 -46 72 -16 25 -33 51 -38 58 -20
27 12 10 63 -34 55 -47 96 -56 94 -21 -2 14 1 15 12 6 21 -17 17 -7 -11 31
-27 37 -85 73 -146 91 -21 7 -39 16 -39 21 0 13 11 10 94 -31z m-5617 7 c-3
-8 -6 -5 -6 6 -1 11 2 17 5 13 3 -3 4 -12 1 -19z m5447 6 c4 -9 4 -19 2 -21
-8 -8 -26 8 -26 23 0 19 16 18 24 -2z m-429 -14 c4 -6 11 -8 16 -4 10 6 130
-80 137 -98 2 -5 16 -23 30 -40 23 -28 24 -30 5 -20 -35 19 -44 15 -31 -13 14
-31 6 -40 -20 -26 -12 6 -30 11 -42 11 -11 0 -23 7 -26 15 -3 8 -26 26 -50 40
-24 14 -44 28 -44 30 0 5 98 -40 107 -49 9 -9 23 -7 23 3 0 5 -16 19 -36 30
-23 14 -34 27 -30 36 3 8 -1 27 -9 42 -8 15 -15 22 -15 16 0 -19 -11 -16 -45
12 l-30 24 27 1 c15 0 30 -5 33 -10z m-4665 -4 c0 -2 -8 -10 -17 -17 -16 -13
-17 -12 -4 4 13 16 21 21 21 13z m6135 -16 c3 -5 1 -10 -4 -10 -6 0 -11 5 -11
10 0 6 2 10 4 10 3 0 8 -4 11 -10z m-1015 -10 c0 -5 -4 -10 -10 -10 -5 0 -10
5 -10 10 0 6 5 10 10 10 6 0 10 -4 10 -10z m-4580 -4 c0 -3 -7 -12 -16 -20
-23 -23 -40 -19 -19 4 16 18 35 26 35 16z m4326 -21 c15 -14 25 -27 23 -30 -6
-6 -69 37 -69 48 0 14 19 7 46 -18z m304 17 c0 -13 -12 -22 -22 -16 -10 6 -1
24 13 24 5 0 9 -4 9 -8z m-5577 -31 c6 -24 -3 -38 -27 -42 -10 -2 -24 -12 -30
-23 -15 -25 -99 -107 -104 -101 -5 5 20 46 44 73 8 9 33 38 56 65 45 52 53 56
61 28z m5471 -52 c-3 -5 0 -10 5 -10 6 -1 16 -3 21 -4 6 -1 13 -3 16 -4 3 0
-2 -9 -11 -18 -16 -16 -47 -10 -46 9 0 4 -7 25 -15 45 l-16 38 26 -24 c14 -13
23 -28 20 -32z m-5854 17 c0 -31 -10 -56 -21 -56 -10 0 -12 40 -3 64 9 24 24
19 24 -8z m517 3 c-4 -16 -3 -18 8 -9 8 7 16 7 19 2 3 -6 -1 -15 -10 -22 -8
-7 -12 -20 -9 -27 3 -8 -5 -27 -16 -41 l-22 -27 7 25 c3 14 9 35 12 48 5 18 3
21 -10 16 -14 -5 -14 -3 0 25 18 35 29 41 21 10z m-95 -15 c-13 -9 -22 -26
-22 -41 0 -18 -4 -24 -15 -19 -9 3 -15 0 -15 -8 0 -13 -49 -41 -57 -32 -3 3 6
16 20 30 14 14 28 35 32 47 4 11 21 27 38 34 39 16 49 10 19 -11z m-207 -13
c-3 -6 -11 -11 -17 -11 -6 0 -6 6 2 15 14 17 26 13 15 -4z m665 -1 c-20 -13
-57 -13 -44 -1 10 10 46 19 54 14 2 -2 -2 -8 -10 -13z m5435 0 c3 -5 1 -10 -4
-10 -6 0 -11 5 -11 10 0 6 2 10 4 10 3 0 8 -4 11 -10z m-6139 -18 c-3 -5 -24
-22 -48 -38 -24 -15 -58 -41 -76 -56 -33 -29 -52 -35 -52 -19 0 5 17 19 38 32
20 12 51 34 67 49 35 32 85 54 71 32z m616 -29 c-5 -10 -7 -25 -4 -33 3 -12 1
-12 -13 2 -20 19 -14 48 10 48 12 0 13 -4 7 -17z m128 0 c0 -5 -15 -16 -33
-26 l-32 -19 24 26 c24 26 41 33 41 19z m600 -52 c0 -22 -6 -44 -15 -51 -13
-11 -15 -6 -15 32 0 25 3 48 7 51 15 16 23 5 23 -32z m4185 29 c3 -5 1 -10 -4
-10 -6 0 -11 5 -11 10 0 6 2 10 4 10 3 0 8 -4 11 -10z m-5278 -22 c-3 -8 -6
-5 -6 6 -1 11 2 17 5 13 3 -3 4 -12 1 -19z m1219 -15 c-11 -11 -19 6 -11 24 8
17 8 17 12 0 3 -10 2 -21 -1 -24z m4644 33 c0 -3 -4 -8 -10 -11 -5 -3 -10 -1
-10 4 0 6 5 11 10 11 6 0 10 -2 10 -4z m-5095 -33 c-28 -20 -41 -16 -19 6 10
10 23 16 28 13 5 -3 1 -11 -9 -19z m4755 7 c0 -5 -2 -10 -4 -10 -3 0 -8 5 -11
10 -3 6 -1 10 4 10 6 0 11 -4 11 -10z m1084 -56 c3 -9 6 -25 6 -37 -1 -21 -1
-21 -15 3 -8 14 -14 31 -15 38 0 17 17 15 24 -4z m-7093 -25 c-18 -17 -35 -28
-39 -24 -7 6 47 54 62 55 5 0 -6 -14 -23 -31z m353 16 c-4 -8 -11 -15 -16 -15
-6 0 -5 6 2 15 7 8 14 15 16 15 2 0 1 -7 -2 -15z m5887 -26 c8 -15 8 -24 0
-32 -13 -13 -18 -9 -26 26 -9 33 9 37 26 6z m-6324 -47 c-31 -32 -87 -67 -87
-54 0 12 22 31 69 59 48 28 49 28 18 -5z m7043 -12 c0 -5 -5 -10 -11 -10 -5 0
-7 5 -4 10 3 6 8 10 11 10 2 0 4 -4 4 -10z m-20 -43 c0 -5 -4 -5 -10 -2 -5 3
-10 14 -10 23 0 15 2 15 10 2 5 -8 10 -19 10 -23z m-5350 9 c0 -8 -4 -18 -10
-21 -5 -3 -10 3 -10 14 0 12 5 21 10 21 6 0 10 -6 10 -14z m-1385 -6 c-3 -5
-13 -10 -21 -10 -8 0 -14 5 -14 10 0 6 9 10 21 10 11 0 17 -4 14 -10z m658 -7
c-7 -2 -19 -2 -25 0 -7 3 -2 5 12 5 14 0 19 -2 13 -5z m-1068 -23 c-3 -5 -12
-10 -18 -10 -7 0 -6 4 3 10 19 12 23 12 15 0z m7359 -10 c21 -8 26 -16 26 -45
0 -22 4 -34 10 -30 6 3 10 -2 10 -11 0 -16 -1 -16 -19 0 -11 10 -17 25 -14 34
4 10 2 13 -6 8 -12 -8 -53 33 -44 46 5 10 7 10 37 -2z m-8957 -22 c-3 -8 -6
-5 -6 6 -1 11 2 17 5 13 3 -3 4 -12 1 -19z m1557 2 c-12 -5 -25 -13 -29 -19
-3 -6 -12 -11 -18 -11 -7 1 -1 10 12 20 13 11 31 20 40 19 11 0 10 -3 -5 -9z
m656 6 c0 -3 -4 -8 -10 -11 -5 -3 -10 -1 -10 4 0 6 5 11 10 11 6 0 10 -2 10
-4z m6136 -83 c-11 -11 -26 10 -26 35 l0 27 15 -29 c9 -16 13 -31 11 -33z
m-4096 40 c-1 -15 -30 -46 -37 -40 -3 4 2 16 13 26 22 23 24 24 24 14z m4635
-11 c-3 -3 -11 0 -18 7 -9 10 -8 11 6 5 10 -3 15 -9 12 -12z m-6110 -12 c-3
-5 -10 -10 -16 -10 -5 0 -9 5 -9 10 0 6 7 10 16 10 8 0 12 -4 9 -10z m-942 -7
c-13 -2 -33 -2 -45 0 -13 2 -3 4 22 4 25 0 35 -2 23 -4z m-1813 -22 c0 -6 -4
-13 -10 -16 -5 -3 -10 1 -10 9 0 9 5 16 10 16 6 0 10 -4 10 -9z m8800 -32 c15
-27 -6 -33 -30 -9 -11 11 -18 25 -15 30 8 13 34 1 45 -21z m-6339 -2 c-10 -9
-11 -8 -5 6 3 10 9 15 12 12 3 -3 0 -11 -7 -18z m-1091 9 c0 -2 -7 -7 -16 -10
-8 -3 -12 -2 -9 4 6 10 25 14 25 6z m1396 -24 c-18 -16 -18 -16 -6 6 6 13 14
21 18 18 3 -4 -2 -14 -12 -24z m6234 19 c0 -5 -7 -11 -15 -15 -15 -5 -20 5 -8
17 9 10 23 9 23 -2z m-6187 -28 c-7 -3 -13 -13 -13 -24 0 -10 -4 -19 -10 -19
-5 0 -10 5 -10 12 0 16 32 50 39 42 3 -4 0 -9 -6 -11z m-223 -3 c0 -5 -4 -10
-10 -10 -5 0 -10 5 -10 10 0 6 5 10 10 10 6 0 10 -4 10 -10z m-250 -61 c-12
-16 -19 -33 -16 -36 3 -4 7 -4 9 -2 38 50 81 99 88 99 5 0 9 -7 9 -15 0 -8 -4
-15 -10 -15 -5 0 -10 -4 -10 -9 0 -6 -12 -23 -26 -38 -15 -15 -47 -59 -71 -98
-25 -38 -57 -83 -71 -98 -22 -23 -24 -30 -12 -37 15 -9 14 -13 -34 -95 -13
-22 -27 -57 -31 -77 -5 -27 -14 -41 -33 -50 -22 -11 -28 -22 -33 -63 -3 -28
-16 -81 -30 -120 -24 -69 -24 -70 -27 -32 -5 63 37 236 83 342 7 17 18 44 25
62 8 21 17 30 26 26 8 -3 14 1 14 10 0 9 6 22 13 29 21 22 76 140 71 153 -3 7
2 15 10 18 9 4 13 13 10 22 -3 8 -2 15 4 15 6 0 21 17 34 38 17 28 24 33 26
20 2 -10 -6 -32 -18 -49z m-60 27 c0 -3 -4 -8 -10 -11 -5 -3 -10 -1 -10 4 0 6
5 11 10 11 6 0 10 -2 10 -4z m-28 -48 c-7 -7 -12 -8 -12 -2 0 14 12 26 19 19
2 -3 -1 -11 -7 -17z m242 -39 c-20 -21 -25 -32 -17 -37 18 -11 -1 -34 -31 -37
-14 -2 -26 -1 -26 2 0 12 93 114 98 108 3 -3 -8 -19 -24 -36z m4801 21 c3 -5
1 -10 -4 -10 -6 0 -11 5 -11 10 0 6 2 10 4 10 3 0 8 -4 11 -10z m-5067 -27
c-7 -16 -20 -37 -30 -49 -10 -11 -18 -25 -18 -31 0 -6 -7 -16 -15 -23 -37 -30
2 56 48 108 27 29 29 28 15 -5z m1907 17 c3 -5 -1 -10 -9 -10 -9 0 -16 5 -16
10 0 6 4 10 9 10 6 0 13 -4 16 -10z m71 -17 c-10 -10 -19 5 -10 18 6 11 8 11
12 0 2 -7 1 -15 -2 -18z m3124 2 c0 -8 -5 -15 -11 -15 -7 0 -9 -9 -6 -22 4
-16 -2 -32 -18 -50 -13 -16 -27 -28 -30 -28 -4 0 -5 12 -2 28 2 15 2 22 0 15
-4 -12 -33 -26 -40 -19 -5 5 24 34 53 54 13 9 15 14 7 18 -18 8 -16 25 1 18 8
-3 17 -1 21 5 9 16 25 13 25 -4z m217 -77 c-3 -7 -5 -2 -5 12 0 14 2 19 5 13
2 -7 2 -19 0 -25z m1128 22 c3 -6 -1 -7 -9 -4 -18 7 -21 14 -7 14 6 0 13 -4
16 -10z m-1152 -50 c-3 -12 -8 -19 -11 -16 -5 6 5 36 12 36 2 0 2 -9 -1 -20z
m-3413 0 c0 -5 -4 -10 -10 -10 -5 0 -10 5 -10 10 0 6 5 10 10 10 6 0 10 -4 10
-10z m-1690 -20 c0 -5 -5 -10 -11 -10 -5 0 -7 5 -4 10 3 6 8 10 11 10 2 0 4
-4 4 -10z m1510 0 c0 -5 -4 -10 -10 -10 -5 0 -10 5 -10 10 0 6 5 10 10 10 6 0
10 -4 10 -10z m-1463 -20 c7 -10 9 -21 5 -24 -4 -2 -12 7 -19 20 -13 29 -3 32
14 4z m-107 -39 c-11 -23 -18 -46 -14 -52 3 -6 15 8 26 30 11 23 26 41 34 41
16 0 -2 -33 -44 -82 -23 -26 -24 -26 -43 -7 -22 22 -15 44 29 91 34 37 38 29
12 -21z m1060 -49 c0 -7 -4 -10 -10 -7 -5 3 -10 16 -10 28 0 18 2 19 10 7 5
-8 10 -21 10 -28z m-1152 -21 c-11 -18 -11 -23 2 -32 12 -8 12 -9 -4 -7 -14 2
-22 -6 -30 -30 -10 -30 -13 -31 -30 -19 -17 12 -17 14 -2 20 9 4 16 13 16 22
0 14 51 77 58 70 2 -2 -3 -13 -10 -24z m30 -68 c-9 -10 -26 -61 -38 -113 -12
-52 -28 -118 -36 -146 -16 -59 -18 -88 -4 -79 6 3 10 -1 10 -9 0 -9 -6 -16
-14 -16 -23 0 -28 -34 -22 -128 5 -70 4 -82 -5 -62 -12 24 -12 24 -21 -19 -7
-30 -6 -47 1 -54 6 -6 11 -25 11 -41 -1 -29 -1 -30 -15 -12 -8 11 -15 35 -15
53 0 19 -5 54 -11 78 -13 51 -5 95 16 95 8 0 15 5 15 10 0 6 -6 10 -13 10 -11
0 -11 15 -1 88 16 104 22 127 47 170 10 17 16 32 13 32 -4 0 5 22 19 50 14 27
25 58 25 69 0 11 10 27 22 35 27 19 37 12 16 -11z m5263 0 c-12 -20 -14 -14
-5 12 4 9 9 14 11 11 3 -2 0 -13 -6 -23z m-4131 -97 c0 -3 -4 -8 -10 -11 -5
-3 -10 -1 -10 4 0 6 5 11 10 11 6 0 10 -2 10 -4z m5610 -49 c0 -6 -9 -2 -20 8
-11 10 -20 23 -20 28 0 6 9 2 20 -8 11 -10 20 -23 20 -28z m40 -52 c0 -12 -5
-12 -25 -3 -25 11 -30 19 -19 31 10 10 44 -12 44 -28z m-6955 -22 c-4 -10 -9
-34 -11 -53 -5 -43 -24 -90 -35 -90 -12 0 -11 8 3 69 6 28 15 51 20 51 4 0 8
9 8 20 0 11 5 20 11 20 7 0 8 -7 4 -17z m415 -39 c0 -19 -24 -44 -43 -43 l-22
0 23 9 c12 5 22 16 22 25 0 8 5 15 10 15 6 0 10 -3 10 -6z m507 -88 c15 -13
24 -28 20 -32 -4 -4 -22 6 -40 24 -37 37 -21 43 20 8z m-447 -10 c-38 -13 -45
-13 -35 3 3 6 21 11 38 10 l32 0 -35 -13z m618 -56 c-7 -10 -14 -17 -17 -15
-4 4 18 35 25 35 2 0 -1 -9 -8 -20z m-308 -16 c0 -8 -4 -12 -10 -9 -5 3 -10
10 -10 16 0 5 5 9 10 9 6 0 10 -7 10 -16z m-800 -29 c0 -19 -4 -35 -10 -35 -5
0 -10 -15 -10 -34 0 -21 -6 -36 -15 -40 -10 -3 -15 1 -15 13 0 11 5 21 11 23
6 2 13 26 15 53 2 28 3 51 4 53 0 1 5 2 10 2 6 0 10 -16 10 -35z m1055 5 c-3
-5 -11 -10 -17 -10 -6 0 -16 -6 -22 -14 -6 -7 -36 -27 -66 -43 -87 -48 -134
-76 -141 -86 -4 -5 -11 -7 -17 -3 -6 3 -17 -2 -24 -12 -17 -24 -41 -32 -59
-21 -12 8 -11 12 5 24 11 8 26 15 33 15 7 0 13 4 13 9 0 5 53 34 118 65 64 31
128 63 142 71 29 17 44 19 35 5z m-385 -9 c0 -5 -9 -7 -20 -4 -11 3 -20 7 -20
9 0 2 9 4 20 4 11 0 20 -4 20 -9z m685 -1 c-3 -5 -12 -10 -18 -10 -11 0 -44
-16 -177 -85 -30 -16 -59 -29 -65 -29 -5 -1 -22 -9 -37 -19 -15 -11 -33 -17
-40 -14 -13 4 306 165 330 166 7 1 10 -3 7 -9z m-155 -9 c0 -9 -24 -21 -41
-21 -16 0 -10 18 9 23 28 8 32 7 32 -2z m-678 -23 c-7 -7 -12 -8 -12 -2 0 14
12 26 19 19 2 -3 -1 -11 -7 -17z m-198 -9 c-3 -5 -14 -9 -25 -9 -10 0 -19 4
-19 9 0 5 11 9 25 9 13 0 22 -4 19 -9z m59 4 c-7 -2 -19 -2 -25 0 -7 3 -2 5
12 5 14 0 19 -2 13 -5z m53 -15 c-18 -10 -39 -2 -31 12 3 4 15 6 26 3 19 -5
19 -7 5 -15z m896 -18 c-41 -25 -54 -25 -23 0 13 11 31 20 40 20 9 0 3 -8 -17
-20z m-962 -5 c11 -13 8 -15 -18 -15 -17 0 -32 -5 -34 -11 -2 -6 -25 -13 -51
-16 -38 -5 -47 -3 -47 10 0 21 11 26 34 18 20 -8 66 8 66 22 0 13 37 7 50 -8z
m1464 -8 c-5 -13 -44 -41 -44 -31 0 5 41 43 47 44 1 0 0 -6 -3 -13z m-1247
-13 c5 -15 -31 -24 -64 -15 -49 13 -40 33 13 29 26 -2 49 -8 51 -14z m2267 -8
c-3 -9 -10 -13 -16 -10 -5 3 -4 12 3 20 15 18 22 13 13 -10z m-2437 8 c-3 -3
-12 -4 -19 -1 -8 3 -5 6 6 6 11 1 17 -2 13 -5z m-212 -27 c21 -16 5 -33 -21
-23 -9 3 -29 -3 -45 -15 -40 -28 -37 -7 4 25 37 30 38 30 62 13z m392 -46 c18
-8 29 -9 37 -1 16 16 30 12 16 -5 -6 -8 -9 -18 -6 -24 4 -5 -12 -9 -36 -10
-24 0 -59 -5 -78 -11 -19 -5 -52 -10 -72 -10 -27 0 -38 -4 -38 -15 0 -23 -25
-18 -38 8 -9 19 -10 39 -3 80 0 4 22 7 49 8 26 0 67 4 92 7 30 5 46 4 48 -4 2
-6 15 -17 29 -23z m380 -7 c-15 -8 -33 -11 -40 -7 -8 5 -1 10 18 14 48 10 52
9 22 -7z m1583 -4 c0 -5 -5 -10 -11 -10 -5 0 -7 5 -4 10 3 6 8 10 11 10 2 0 4
-4 4 -10z m-3295 -10 c3 -5 17 -10 31 -10 13 0 24 -5 24 -11 0 -6 -8 -8 -17
-5 -10 3 -30 8 -45 12 -16 3 -28 10 -28 15 0 12 27 11 35 -1z m230 -30 c4 -6
-15 -10 -49 -10 -30 0 -58 5 -61 10 -4 6 15 10 49 10 30 0 58 -4 61 -10z
m-495 -40 c0 8 8 2 18 -15 21 -33 52 -63 52 -48 0 5 -5 14 -11 20 -6 6 -9 17
-6 25 3 8 9 3 16 -14 6 -16 17 -28 26 -28 8 0 15 -9 15 -19 0 -11 11 -32 25
-47 30 -33 32 -49 4 -34 -15 8 -24 8 -34 0 -10 -8 -19 -8 -34 -1 -28 16 -33
14 -21 -9 6 -11 19 -20 29 -20 21 0 69 -35 60 -44 -6 -7 -115 50 -125 65 -3 5
-10 7 -15 4 -5 -4 -9 4 -9 15 0 13 -8 24 -20 27 -11 3 -20 10 -20 17 0 6 -14
17 -31 25 -35 15 -48 39 -28 52 26 16 51 9 80 -23 34 -39 37 -32 9 19 -26 50
-26 77 0 43 13 -17 20 -20 20 -10z m1083 1 c2 -11 15 -21 27 -23 14 -2 27 -16
36 -38 l15 -35 -21 23 c-21 22 -47 31 -35 12 3 -5 1 -10 -5 -10 -11 0 -40 58
-40 80 0 18 17 11 23 -9z m211 -12 c-7 -11 -34 -12 -34 -1 0 14 11 21 26 15 8
-3 11 -9 8 -14z m508 5 c-14 -9 -30 -13 -40 -9 -14 7 -13 9 8 15 43 14 56 11
32 -6z m-255 -20 c-3 -3 -12 -4 -19 -1 -8 3 -5 6 6 6 11 1 17 -2 13 -5z m83
-14 c0 -5 -9 -10 -21 -10 -11 0 -17 5 -14 10 3 6 13 10 21 10 8 0 14 -4 14
-10z m203 0 c-13 -5 -23 -14 -23 -20 0 -6 5 -8 10 -5 6 3 10 2 10 -4 0 -5 -35
-12 -77 -16 -43 -3 -111 -12 -151 -19 -40 -8 -81 -12 -92 -9 -11 3 -20 0 -20
-6 0 -6 10 -11 22 -11 18 0 18 -14 0 -16 -40 -3 -92 -18 -92 -25 0 -6 5 -7 12
-3 6 4 8 3 5 -3 -3 -5 -32 -10 -64 -11 -57 -2 -57 -1 -28 12 l30 14 -24 9
c-24 10 -23 10 20 27 24 9 58 18 74 19 17 2 37 7 45 12 8 5 33 10 55 12 61 5
224 33 248 43 12 5 31 9 42 9 18 0 18 -1 -2 -9z m-805 -30 c2 -12 -8 -14 -50
-12 -73 4 -92 14 -43 23 58 10 89 6 93 -11z m-828 -15 c0 -8 -7 -15 -15 -15
-8 0 -15 7 -15 15 0 8 7 15 15 15 8 0 15 -7 15 -15z m1470 -39 c0 -2 -7 -6
-15 -10 -8 -3 -15 -1 -15 4 0 6 7 10 15 10 8 0 15 -2 15 -4z m-927 -37 c-7 -7
-29 -7 -69 -1 l-59 10 70 1 c49 1 66 -2 58 -10z m-1033 -29 c0 -5 -4 -10 -10
-10 -5 0 -10 5 -10 10 0 6 5 10 10 10 6 0 10 -4 10 -10z m505 -40 c3 -5 1 -10
-4 -10 -6 0 -11 5 -11 10 0 6 2 10 4 10 3 0 8 -4 11 -10z m-570 -20 c10 -11
15 -20 11 -20 -14 0 -46 21 -46 30 0 16 16 11 35 -10z m653 3 c12 -3 22 -10
22 -15 0 -6 -13 -8 -32 -4 -18 4 -41 8 -50 9 -13 1 -14 4 -6 15 6 7 18 10 27
6 9 -4 26 -9 39 -11z m119 -28 c-15 -32 -37 -32 -37 -1 0 15 7 26 18 29 27 6
31 -1 19 -28z m204 12 c-1 -12 -15 -9 -19 4 -3 6 1 10 8 8 6 -3 11 -8 11 -12z
m-171 -49 c0 -5 -4 -8 -10 -8 -5 0 -10 10 -10 23 0 18 2 19 10 7 5 -8 10 -18
10 -22z m45 22 c3 -5 -1 -10 -10 -10 -9 0 -13 5 -10 10 3 6 8 10 10 10 2 0 7
-4 10 -10z m-415 -15 c0 -8 -7 -15 -16 -15 -14 0 -14 3 -4 15 7 8 14 15 16 15
2 0 4 -7 4 -15z m-393 -21 c-6 -6 -47 9 -47 17 0 5 11 3 25 -3 14 -6 24 -13
22 -14z m1543 -164 c-20 -13 -43 -13 -35 0 3 6 16 10 28 10 18 0 19 -2 7 -10z
m-617 -45 c-3 -9 -8 -14 -10 -11 -3 3 -2 9 2 15 9 16 15 13 8 -4z m17 -34 c0
-12 -20 -25 -27 -18 -7 7 6 27 18 27 5 0 9 -4 9 -9z m1380 -81 c0 -5 -2 -10
-4 -10 -3 0 -8 5 -11 10 -3 6 -1 10 4 10 6 0 11 -4 11 -10z m-1565 -55 c39
-13 64 -24 57 -24 -26 -2 -142 32 -142 40 0 12 5 11 85 -16z m364 10 c-3 -2
-25 -6 -50 -8 -25 -2 -51 -7 -58 -11 -7 -5 -15 -5 -19 -1 -13 13 24 25 77 25
30 0 52 -2 50 -5z m-483 -62 c19 -18 33 -36 31 -40 -1 -4 16 -16 37 -28 39
-20 39 -20 11 -23 -20 -3 -36 5 -59 27 -17 16 -44 33 -60 37 -26 6 -27 8 -12
19 12 9 15 21 11 41 -3 16 -2 23 1 15 4 -8 22 -30 40 -48z m50 10 c-10 -10
-19 5 -10 18 6 11 8 11 12 0 2 -7 1 -15 -2 -18z m49 -31 c-9 -9 -35 8 -35 24
0 16 2 16 20 -1 11 -10 18 -20 15 -23z m66 18 c19 -11 26 -30 10 -30 -5 0 -19
9 -32 20 -26 21 -11 27 22 10z m-96 -40 c3 -5 2 -10 -4 -10 -5 0 -13 5 -16 10
-3 6 -2 10 4 10 5 0 13 -4 16 -10z m400 -20 c-28 -12 -47 -12 -40 0 3 6 18 10
33 9 24 0 25 -1 7 -9z m169 -12 c-6 -20 -5 -21 10 -9 10 8 16 9 16 3 0 -6 -9
-16 -20 -22 -18 -10 -20 -8 -20 20 0 16 5 30 11 30 6 0 8 -9 3 -22z m-249 0
c3 -3 -8 -11 -25 -18 -17 -7 -33 -10 -37 -6 -3 3 1 6 10 6 10 0 17 6 17 14 0
14 23 16 35 4z m85 -77 c0 -12 -20 -25 -27 -18 -7 7 6 27 18 27 5 0 9 -4 9 -9z
m-160 -23 c0 -6 -6 -5 -15 2 -8 7 -15 14 -15 16 0 2 7 1 15 -2 8 -4 15 -11 15
-16z m-1085 -198 c-16 -4 -43 -8 -60 -8 -29 0 -29 0 -5 8 14 4 41 8 60 8 l35
0 -30 -8z m-25 -54 c0 -11 -19 -15 -25 -6 -3 5 1 10 9 10 9 0 16 -2 16 -4z
m730 -96 c0 -5 -7 -10 -15 -10 -8 0 -15 5 -15 10 0 6 7 10 15 10 8 0 15 -4 15
-10z m1315 -310 c3 -5 2 -10 -4 -10 -5 0 -13 5 -16 10 -3 6 -2 10 4 10 5 0 13
-4 16 -10z m-1751 -35 c4 -14 10 -25 15 -25 15 0 71 -60 71 -76 0 -8 7 -22 15
-30 8 -9 18 -27 22 -42 8 -33 54 -96 62 -85 3 5 15 9 26 8 16 0 20 -7 21 -33
0 -18 7 -37 14 -42 12 -7 11 -10 -3 -16 -12 -4 -14 -10 -8 -18 12 -15 36 -98
39 -138 3 -29 22 -20 22 10 1 23 2 24 11 10 5 -10 15 -18 22 -18 7 0 12 -16
12 -42 0 -63 26 -160 40 -154 17 6 31 -134 15 -144 -8 -5 -3 -17 14 -37 14
-17 26 -35 26 -41 0 -6 4 -12 8 -14 4 -1 18 -20 31 -40 12 -21 27 -38 32 -38
6 0 7 -5 4 -10 -8 -13 115 -181 127 -174 4 3 8 -1 8 -8 0 -12 39 -60 123 -152
15 -17 27 -34 27 -39 0 -4 5 -5 10 -2 6 3 10 0 10 -7 0 -7 18 -30 40 -51 22
-20 40 -42 40 -48 0 -6 6 -9 14 -6 8 3 19 -5 26 -19 14 -24 25 -30 34 -16 6
10 -14 35 -45 56 -20 12 -25 23 -21 38 3 14 1 19 -6 14 -7 -4 -12 -1 -12 8 0
8 -7 19 -16 24 -11 6 -13 11 -5 16 6 4 11 12 11 18 0 6 -6 6 -15 -2 -9 -7 -19
-10 -22 -6 -4 4 -3 10 3 14 14 9 14 45 0 55 -7 5 -5 12 6 21 10 7 15 15 12 18
-3 3 8 8 25 10 32 5 52 -6 66 -39 9 -20 12 -20 29 -8 12 9 20 28 20 51 1 22 8
39 19 45 9 6 17 18 18 27 0 14 2 13 9 -3 5 -11 9 -14 9 -7 1 6 12 12 25 12 16
0 27 7 31 20 3 11 11 20 17 20 6 0 8 9 5 20 -3 11 -2 20 1 21 4 0 16 2 27 3
47 5 119 32 129 49 13 21 32 22 40 2 8 -22 25 -18 37 8 6 14 20 24 35 25 32 2
105 -43 98 -62 -3 -8 3 -16 15 -19 16 -4 21 0 21 14 0 10 7 19 15 19 18 0 18
-1 5 -34 -10 -27 -4 -59 10 -51 13 8 23 -14 12 -28 -23 -29 -31 -108 -11 -115
15 -6 10 -38 -7 -53 -12 -9 -15 -24 -11 -51 4 -32 2 -38 -11 -36 -21 4 -27
-28 -11 -58 10 -19 10 -26 -1 -39 -7 -8 -19 -15 -26 -15 -8 0 -14 -5 -14 -10
0 -6 3 -9 8 -8 26 5 42 -17 42 -57 l0 -43 -45 -7 c-42 -6 -45 -8 -39 -28 4
-12 7 -29 6 -37 0 -8 4 -25 10 -37 9 -18 8 -27 -5 -41 -16 -18 -16 -20 2 -36
10 -10 27 -16 37 -14 22 4 44 -35 44 -76 0 -27 -1 -28 -18 -13 -14 13 -21 14
-30 5 -8 -8 -15 -8 -26 1 -8 7 -19 10 -25 7 -5 -3 -21 -2 -36 4 -20 7 -31 7
-41 -1 -18 -14 -47 13 -38 35 4 12 2 15 -9 11 -15 -6 -47 19 -47 36 0 5 -6 9
-14 9 -7 0 -22 12 -32 28 l-18 27 -6 -25 c-6 -24 -7 -24 -24 12 -10 21 -22 35
-27 32 -5 -3 -9 0 -9 6 0 6 -5 8 -10 5 -6 -4 8 -26 34 -53 25 -26 55 -58 68
-72 13 -14 29 -25 37 -25 8 0 16 -7 18 -15 4 -13 3 -13 -6 0 -5 8 -13 12 -16
9 -7 -7 40 -63 108 -127 26 -25 47 -52 47 -60 0 -9 6 -12 16 -8 8 3 12 2 9 -4
-3 -6 -1 -10 5 -10 7 0 10 -5 8 -11 -2 -6 15 -32 38 -58 24 -25 57 -63 76 -85
18 -21 54 -60 81 -87 26 -26 47 -51 47 -54 0 -3 11 -18 24 -33 13 -15 70 -81
126 -147 56 -66 112 -131 124 -145 61 -70 126 -152 126 -158 -1 -7 -26 20
-100 107 -25 29 -54 63 -65 75 -11 12 -45 51 -75 86 -30 34 -79 89 -107 120
-29 31 -63 70 -75 86 -12 16 -43 52 -69 79 -26 28 -63 70 -84 94 -20 24 -67
78 -104 120 -38 42 -92 103 -121 136 -28 33 -71 80 -94 105 -22 25 -75 83
-116 130 -41 46 -84 94 -95 105 -64 67 -392 440 -501 570 -194 232 -429 475
-459 475 -7 0 -15 4 -17 8 -7 18 -68 52 -92 52 -15 0 -25 5 -23 12 1 7 -12 17
-29 23 -17 5 -31 14 -32 20 0 5 -15 13 -31 18 -17 4 -31 12 -31 18 0 7 -12 9
-29 7 -17 -2 -28 -1 -25 4 11 17 -17 7 -38 -14 -20 -20 -21 -23 -5 -26 9 -2
17 -11 17 -21 0 -30 60 -66 125 -75 32 -4 96 -14 131 -21 18 -4 73 -69 100
-120 9 -17 7 -20 -15 -22 -14 -1 -35 7 -46 17 -11 10 -31 20 -45 22 -39 6
-162 69 -195 101 -16 16 -43 35 -60 43 -16 8 -41 21 -55 29 -14 8 -39 15 -57
15 -17 0 -35 5 -39 11 -4 7 -9 8 -13 1 -9 -15 -28 -16 -116 -8 -60 5 -98 16
-150 41 -73 34 -152 55 -242 62 -69 6 -122 -19 -190 -89 -88 -92 -120 -183
-103 -288 6 -36 13 -87 16 -114 2 -27 11 -63 19 -79 8 -17 15 -37 15 -46 0 -9
9 -33 19 -53 11 -19 17 -38 14 -42 -3 -3 -1 -11 4 -18 6 -7 15 -47 22 -87 6
-41 17 -81 22 -88 6 -6 8 -21 4 -33 -4 -12 -2 -20 5 -20 8 0 10 -9 6 -26 -5
-17 -3 -23 4 -19 7 4 9 -2 4 -19 -3 -15 -1 -32 5 -40 7 -8 11 -20 10 -28 -1
-7 3 -26 9 -41 7 -16 12 -39 12 -53 0 -14 7 -41 15 -61 8 -19 15 -42 15 -50 0
-8 9 -33 20 -55 23 -48 23 -48 10 -48 -5 0 -10 6 -10 14 0 7 -7 20 -16 27 -45
37 -91 197 -145 499 -19 109 -40 188 -89 345 -31 97 -52 231 -44 285 8 62 53
166 96 222 47 61 92 99 153 129 46 22 62 24 180 23 108 -1 139 -4 185 -22 55
-22 176 -42 135 -23 l-20 10 20 1 c29 1 -100 60 -133 60 l-27 1 25 20 c42 35
101 23 201 -43 145 -95 199 -116 199 -79 0 11 5 23 10 26 6 3 10 14 10 23 0
18 39 58 52 55 10 -3 46 49 64 92 8 20 19 33 24 30 6 -3 10 0 10 8 0 8 11 26
25 41 14 15 25 29 25 32 0 3 7 16 16 29 22 34 60 33 68 0z m-554 -15 c-9 -17
-30 -28 -30 -16 0 16 15 36 26 36 12 0 12 -4 4 -20z m-140 -110 c0 -5 -4 -10
-10 -10 -5 0 -10 5 -10 10 0 6 5 10 10 10 6 0 10 -4 10 -10z m100 -35 c0 -8
-7 -15 -15 -15 -8 0 -15 7 -15 15 0 8 7 15 15 15 8 0 15 -7 15 -15z m970 -350
c0 -14 -4 -25 -10 -25 -11 0 -14 33 -3 43 11 11 13 8 13 -18z m60 -296 c0 -6
-4 -7 -10 -4 -5 3 -10 11 -10 16 0 6 5 7 10 4 6 -3 10 -11 10 -16z m2075 -417
c-3 -3 -11 0 -18 7 -9 10 -8 11 6 5 10 -3 15 -9 12 -12z m-1993 -87 c6 -14 14
-25 17 -25 9 0 61 -46 61 -54 0 -8 14 -26 55 -70 17 -18 46 -52 66 -77 20 -24
47 -56 60 -70 13 -14 35 -41 49 -60 14 -18 40 -49 58 -68 17 -19 32 -38 32
-43 0 -4 7 -8 15 -8 8 0 15 -7 15 -15 0 -8 5 -15 11 -15 5 0 8 -4 5 -8 -3 -5
14 -31 37 -58 23 -27 55 -69 71 -94 16 -25 59 -83 95 -130 36 -47 71 -94 77
-105 24 -45 40 -70 50 -80 31 -28 94 -127 94 -147 1 -27 25 -62 38 -54 10 6
32 -35 32 -59 0 -8 -6 -15 -13 -15 -22 0 -49 -34 -36 -47 7 -7 5 -15 -7 -27
-9 -9 -15 -18 -13 -19 9 -6 55 -26 73 -31 25 -9 4 -34 -32 -38 l-27 -3 0 -96
c0 -92 -1 -98 -27 -124 -16 -15 -28 -38 -28 -50 0 -18 -4 -21 -25 -17 -19 3
-25 0 -27 -14 -1 -11 -2 -26 -4 -34 -1 -8 -2 -21 -3 -27 -1 -7 -9 -13 -19 -13
-16 0 -32 25 -47 78 -3 12 -10 22 -15 22 -8 0 -15 14 -74 142 -14 31 -30 60
-36 63 -5 3 -14 24 -20 46 -6 23 -25 64 -43 92 -17 28 -40 78 -52 111 -12 34
-36 88 -54 121 -18 33 -48 104 -66 157 -19 54 -48 123 -64 154 -17 30 -31 60
-31 66 0 5 -11 32 -25 60 -14 27 -25 56 -25 64 0 8 -4 22 -9 32 -34 70 -93
213 -146 357 -48 129 -70 183 -78 191 -9 9 -9 48 0 57 12 13 23 7 35 -18z
m-1509 -46 c9 -23 15 -45 12 -49 -2 -4 -5 -41 -6 -83 -1 -43 -5 -77 -9 -77
-11 0 -36 67 -45 118 -7 43 10 132 25 132 4 0 14 -19 23 -41z m2610 -119 c5
-19 1 -29 -14 -38 -20 -13 -21 -12 -14 20 12 56 18 60 28 18z m-68 10 c3 -5 1
-10 -4 -10 -6 0 -11 5 -11 10 0 6 2 10 4 10 3 0 8 -4 11 -10z m-2157 -552 c7
-7 12 -20 12 -30 0 -9 9 -22 19 -28 23 -12 59 -99 45 -108 -13 -9 -36 -83 -34
-108 1 -10 2 -24 1 -31 -1 -16 -31 -5 -31 12 0 7 -4 15 -8 17 -11 4 -52 94
-52 113 0 9 -7 29 -15 45 -36 69 16 165 63 118z m2514 -133 c0 -5 -5 -11 -11
-13 -6 -2 -11 4 -11 13 0 9 5 15 11 13 6 -2 11 -8 11 -13z m-437 -365 c3 -5 1
-10 -4 -10 -6 0 -11 5 -11 10 0 6 2 10 4 10 3 0 8 -4 11 -10z m-1707 -89 c79
-53 108 -67 172 -80 30 -7 64 -18 76 -26 21 -14 58 -11 81 7 6 5 36 12 66 15
l54 5 22 -47 c22 -47 42 -130 34 -139 -3 -2 1 -15 8 -27 6 -13 13 -53 14 -89
0 -36 6 -80 13 -98 9 -26 8 -31 -1 -24 -9 8 -12 -10 -12 -78 0 -54 4 -86 10
-84 6 3 9 -25 8 -73 -4 -119 -3 -137 7 -174 6 -18 10 -47 10 -62 0 -16 6 -41
14 -55 23 -44 66 -149 66 -161 0 -6 17 -34 37 -62 28 -36 48 -53 77 -61 22 -7
58 -29 79 -50 22 -21 44 -38 48 -38 12 0 36 -55 44 -100 4 -25 3 -40 -3 -40
-6 0 -17 -3 -26 -6 -12 -5 -16 0 -16 21 0 15 -4 24 -10 20 -5 -3 -10 -19 -10
-36 0 -30 -20 -42 -20 -11 -1 9 -7 -1 -15 -23 -8 -22 -19 -41 -25 -43 -5 -2
-10 -16 -10 -31 0 -25 -3 -28 -30 -26 -36 2 -53 -20 -36 -47 9 -15 6 -22 -17
-42 -23 -20 -25 -25 -13 -35 16 -14 15 -21 -8 -75 -14 -31 -16 -49 -9 -85 5
-27 14 -45 21 -43 7 1 12 -5 12 -14 0 -10 -6 -14 -15 -10 -17 6 -20 -11 -6
-34 6 -8 7 -18 4 -23 -5 -8 -52 113 -55 141 -1 7 -7 11 -15 8 -7 -3 -13 0 -13
7 0 15 -53 121 -62 125 -7 3 -40 70 -88 177 -10 22 -30 66 -44 97 -14 31 -26
62 -26 68 0 7 -8 9 -20 5 -22 -7 -26 5 -8 23 10 10 10 15 1 20 -6 4 -14 30
-18 57 -4 28 -14 58 -23 68 -8 9 -11 17 -7 17 4 0 0 9 -10 20 -13 15 -21 17
-31 9 -9 -8 -18 -5 -33 10 -19 19 -21 19 -21 4 0 -15 -4 -13 -19 7 -19 24 -19
24 -18 -115 1 -77 -5 -178 -12 -225 -7 -47 -12 -132 -12 -188 l0 -104 -33 -31
c-27 -26 -32 -38 -29 -62 2 -16 -2 -46 -10 -65 -14 -32 -14 -37 4 -62 19 -27
19 -27 -3 -48 -18 -16 -20 -23 -9 -29 11 -7 11 -15 0 -47 -7 -22 -17 -44 -21
-50 -4 -5 -5 -19 -2 -31 4 -15 0 -22 -15 -26 -11 -2 -20 -13 -20 -23 0 -38
-14 -104 -22 -104 -5 0 -9 -10 -9 -22 0 -30 -19 -58 -27 -40 -9 23 -23 1 -23
-37 0 -31 -4 -38 -17 -37 -14 1 -20 -9 -24 -39 -3 -22 -7 -30 -8 -17 0 12 -5
22 -10 22 -16 0 -23 -20 -13 -33 5 -7 12 -33 15 -59 6 -45 6 -47 -21 -50 -23
-2 -28 -8 -30 -36 -2 -24 -7 -32 -17 -28 -8 3 -17 -3 -20 -15 -5 -16 -12 -19
-31 -15 -22 6 -24 4 -24 -34 0 -27 5 -43 15 -46 9 -4 15 -19 15 -36 0 -25 -3
-29 -17 -23 -49 20 -66 15 -77 -22 -6 -20 -4 -23 17 -23 20 0 24 -4 20 -20 -3
-11 -12 -20 -21 -20 -12 0 -13 -3 -4 -12 19 -19 14 -28 -16 -28 -32 0 -71 -33
-53 -45 17 -10 13 -35 -5 -35 -11 0 -15 6 -11 19 2 10 1 25 -3 32 -12 19 -40
-7 -40 -37 0 -28 -18 -41 -26 -19 -4 10 -9 12 -13 7 -21 -35 -166 173 -271
388 -22 47 -52 105 -66 130 -30 56 -160 320 -185 378 -11 24 -19 52 -19 62 0
10 -6 25 -13 32 -23 24 -39 75 -46 155 -4 43 -9 83 -11 88 -9 33 10 61 103
156 56 58 122 129 147 158 25 29 57 65 71 80 14 15 34 42 45 59 10 18 22 32
26 32 4 0 8 7 8 15 0 8 9 20 19 27 15 9 17 16 10 29 -10 20 -6 23 32 32 14 4
52 36 85 71 67 73 63 69 130 156 27 36 51 67 54 70 3 3 23 29 44 58 21 28 41
52 46 52 4 0 13 12 19 28 7 15 25 50 41 77 72 123 91 242 106 677 8 241 5 235
102 169z m1707 -11 c3 -5 1 -10 -4 -10 -6 0 -11 5 -11 10 0 6 2 10 4 10 3 0 8
-4 11 -10z m36 -4 c5 3 9 -2 9 -10 0 -9 -7 -16 -15 -16 -9 0 -15 9 -14 23 0
12 3 16 6 9 2 -6 9 -10 14 -6z m24 -46 c3 -5 -1 -10 -9 -10 -8 0 -18 5 -21 10
-3 6 1 10 9 10 8 0 18 -4 21 -10z m5 -50 c0 -5 -2 -10 -4 -10 -3 0 -8 5 -11
10 -3 6 -1 10 4 10 6 0 11 -4 11 -10z m-100 -66 c0 -21 -4 -33 -10 -29 -17 10
-11 65 7 65 2 0 3 -16 3 -36z m823 -282 c48 -55 87 -103 87 -108 0 -4 12 -21
27 -37 16 -15 21 -26 13 -22 -8 3 -30 25 -47 49 -18 23 -41 52 -50 63 -16 18
-64 74 -135 158 -16 18 -28 36 -28 40 0 10 22 -14 133 -143z m-863 83 c0 -8
-4 -15 -10 -15 -5 0 -10 7 -10 15 0 8 5 15 10 15 6 0 10 -7 10 -15z m1261
-308 c26 -32 24 -37 -20 -37 -45 0 -58 -12 -36 -33 20 -20 19 -57 0 -57 -10 0
-15 -7 -13 -17 4 -24 -31 -18 -54 9 -25 28 -23 32 17 48 40 16 47 35 11 28
-18 -4 -30 2 -45 23 -32 42 -20 54 56 56 57 2 68 -1 84 -20z m-151 -82 c0 -12
-19 6 -41 38 l-22 32 32 -32 c17 -18 31 -35 31 -38z m214 12 c8 -13 7 -24 -4
-45 -21 -36 -54 -36 -58 0 -7 57 35 88 62 45z m775 -147 c45 -25 -138 -47
-257 -31 -119 15 -113 30 15 42 94 8 219 2 242 -11z m-2779 -201 c0 -6 -5 -19
-10 -30 -7 -13 -7 -19 0 -19 5 0 10 7 10 15 0 8 3 15 8 15 14 0 62 -58 62 -77
0 -10 7 -27 15 -37 20 -26 19 -33 -3 -40 -10 -4 -28 -16 -41 -27 l-22 -21 -32
31 c-26 26 -31 38 -30 74 1 23 7 43 13 45 7 3 7 8 1 15 -13 17 -2 67 15 67 8
0 14 -5 14 -11z m-2312 -91 c-7 -19 -38 -22 -38 -4 0 10 9 16 21 16 12 0 19
-5 17 -12z m202 -38 c12 -8 9 -10 -13 -10 -16 0 -26 4 -22 10 8 12 16 12 35 0z
m305 -86 c44 -4 97 -14 118 -23 l37 -16 -77 0 c-49 0 -98 7 -133 19 -59 20
-94 43 -50 33 14 -3 61 -9 105 -13z m1065 -54 c0 -5 -4 -10 -10 -10 -5 0 -10
5 -10 10 0 6 5 10 10 10 6 0 10 -4 10 -10z m2655 -244 c-10 -39 -26 -104 -36
-144 -11 -40 -19 -88 -19 -108 0 -21 -4 -33 -10 -29 -25 16 0 183 48 315 32
89 42 69 17 -34z m4565 -447 c0 -7 -16 -31 -35 -55 -37 -44 -130 -98 -192
-110 -60 -12 -31 33 37 59 25 9 59 30 76 45 75 68 114 89 114 61z m-2910 -49
c-8 -5 -19 -10 -25 -10 -5 0 -3 5 5 10 8 5 20 10 25 10 6 0 3 -5 -5 -10z m-40
-19 c0 -5 -8 -12 -17 -15 -17 -6 -37 -17 -73 -41 -8 -5 -17 -10 -20 -10 -3 -1
-19 -9 -37 -18 -20 -10 -34 -13 -38 -7 -3 6 1 10 9 10 9 0 16 4 16 10 0 5 12
13 28 16 15 4 33 12 41 18 12 9 80 45 89 46 1 0 2 -4 2 -9z m2260 -281 c10 -6
5 -9 -18 -8 -22 1 -29 4 -20 9 16 11 20 11 38 -1z m-70 -30 c0 -5 -7 -10 -16
-10 -8 0 -12 5 -9 10 3 6 10 10 16 10 5 0 9 -4 9 -10z m-7905 -30 c3 -5 1 -10
-4 -10 -6 0 -11 5 -11 10 0 6 2 10 4 10 3 0 8 -4 11 -10z m-255 -130 c0 -5 -5
-10 -11 -10 -5 0 -7 5 -4 10 3 6 8 10 11 10 2 0 4 -4 4 -10z m8 -57 c-5 -25
-28 -28 -28 -4 0 12 6 21 16 21 9 0 14 -7 12 -17z m-558 -177 c0 -8 -4 -18
-10 -21 -5 -3 -10 3 -10 14 0 12 5 21 10 21 6 0 10 -6 10 -14z m470 -6 c0 -5
3 -15 6 -24 4 -11 0 -16 -13 -16 -15 0 -20 7 -20 29 0 20 4 28 14 24 7 -3 13
-9 13 -13z m160 5 c0 -8 -7 -15 -15 -15 -8 0 -15 7 -15 15 0 8 7 15 15 15 8 0
15 -7 15 -15z m-110 -21 c0 -8 -5 -12 -10 -9 -6 4 -8 11 -5 16 9 14 15 11 15
-7z m-303 -36 c-3 -8 -6 -5 -6 6 -1 11 2 17 5 13 3 -3 4 -12 1 -19z m-1029
-36 c-2 -8 -10 -18 -18 -22 -53 -26 -71 -33 -76 -27 -11 10 18 38 33 33 8 -3
15 4 19 18 4 18 11 22 25 19 11 -3 19 -12 17 -21z m62 -42 c0 -5 -9 -10 -20
-10 -11 0 -20 -4 -20 -10 0 -5 -5 -10 -11 -10 -20 0 -3 24 22 31 13 4 25 7 27
8 1 1 2 -3 2 -9z m-130 -44 c0 -8 -7 -16 -15 -20 -10 -4 -15 1 -15 14 0 11 7
20 15 20 8 0 15 -6 15 -14z m-246 -84 c6 -10 -19 -43 -27 -35 -13 12 -7 43 7
43 8 0 17 -3 20 -8z m986 -737 c0 -7 6 -18 14 -22 7 -4 17 -18 20 -30 12 -38
-22 -16 -39 24 -18 42 -18 43 -5 43 6 0 10 -7 10 -15z m50 -99 c0 -3 -4 -8
-10 -11 -5 -3 -10 -1 -10 4 0 6 5 11 10 11 6 0 10 -2 10 -4z m-5 -36 c3 -5 -1
-10 -10 -10 -9 0 -13 5 -10 10 3 6 8 10 10 10 2 0 7 -4 10 -10z m-35 -61 c0
-5 -4 -9 -10 -9 -5 0 -10 7 -10 16 0 8 5 12 10 9 6 -3 10 -10 10 -16z m-383
-994 c-4 -8 -2 -17 3 -20 13 -8 13 -45 1 -45 -16 0 -51 68 -38 74 24 9 39 6
34 -9z m-35 -51 c9 -20 9 -27 -2 -34 -19 -12 -43 15 -35 40 9 27 23 25 37 -6z
m6864 -35 c17 1 45 -11 107 -46 63 -35 135 -76 217 -120 25 -14 52 -30 60 -36
18 -14 37 -25 132 -75 62 -32 109 -59 256 -147 10 -5 51 -31 93 -57 42 -27 79
-48 82 -48 4 0 30 -16 57 -35 27 -19 53 -35 57 -35 11 -1 66 -50 61 -55 -9
-10 -150 54 -233 107 -22 14 -71 37 -108 52 -38 15 -84 36 -103 47 -19 10 -41
19 -48 19 -7 0 -19 7 -26 15 -7 8 -19 15 -26 15 -24 0 -202 91 -208 106 -3 8
-13 14 -23 14 -10 0 -24 9 -31 20 -7 11 -19 20 -27 20 -8 0 -15 5 -15 10 0 6
-9 10 -19 10 -10 0 -35 16 -54 35 -19 19 -40 35 -47 35 -6 0 -17 6 -24 13 -7
6 -30 26 -51 42 -78 61 -105 87 -105 104 0 12 2 13 9 3 4 -8 12 -13 17 -13z
m-7066 -161 c0 -6 -7 -7 -16 -4 -9 3 -22 6 -30 6 -8 0 -14 4 -14 8 0 5 14 7
30 4 17 -2 30 -9 30 -14z m160 7 c-32 -18 -41 -18 -34 0 4 8 18 15 33 15 l26
-1 -25 -14z m-1822 -13 c3 -9 -2 -13 -14 -10 -9 1 -19 9 -22 16 -3 9 2 13 14
10 9 -1 19 -9 22 -16z m1899 -28 c-3 -3 -12 -4 -19 -1 -8 3 -5 6 6 6 11 1 17
-2 13 -5z m223 -23 c0 -6 -4 -13 -10 -16 -5 -3 -10 1 -10 9 0 9 5 16 10 16 6
0 10 -4 10 -9z m-2170 -36 c10 -12 10 -15 -3 -15 -8 0 -24 -3 -34 -6 -17 -5
-17 -5 0 6 9 6 15 15 12 21 -10 15 12 10 25 -6z m1950 -7 c0 -4 -9 -8 -20 -8
-11 0 -20 -5 -20 -12 0 -6 -3 -9 -6 -5 -12 12 4 33 25 33 11 0 21 -4 21 -8z
m887 -10 c33 -37 101 -98 108 -98 4 0 22 -12 39 -27 18 -16 49 -41 69 -57 20
-15 37 -34 37 -41 0 -7 6 -18 14 -24 10 -8 11 -22 5 -54 -12 -60 -11 -77 2
-54 14 24 22 21 37 -10 16 -36 15 -78 -2 -112 -8 -15 -12 -38 -9 -50 4 -14 0
-27 -8 -33 -11 -8 -11 -9 2 -5 8 3 20 -3 27 -13 15 -25 4 -60 -20 -60 -14 0
-18 -5 -14 -16 3 -9 6 -20 6 -25 0 -4 13 -6 30 -3 22 5 31 2 36 -10 9 -23 -15
-50 -32 -35 -16 13 -37 2 -30 -17 7 -17 -64 -20 -81 -3 -8 8 -11 2 -10 -24 0
-19 -5 -42 -12 -51 -15 -18 -41 -22 -41 -6 0 6 -7 10 -15 10 -8 0 -15 5 -15
11 0 7 -14 10 -35 7 -25 -3 -35 0 -35 10 0 7 -4 10 -10 7 -5 -3 -10 -15 -10
-26 0 -10 -4 -19 -10 -19 -5 0 -7 7 -4 15 4 8 1 15 -6 15 -6 0 -9 -4 -6 -8 2
-4 1 -14 -5 -22 -7 -12 -9 -11 -9 5 0 11 12 38 26 59 22 32 24 42 15 62 -12
28 -40 32 -43 7 0 -10 -2 -23 -2 -30 -1 -6 -4 -15 -8 -19 -4 -4 -5 -18 -2 -31
5 -17 2 -23 -7 -21 -8 2 -15 -11 -19 -34 -9 -49 -28 -72 -47 -57 -11 10 -12 9
-7 -5 4 -11 1 -16 -14 -16 -11 0 -26 -2 -34 -3 -7 -2 -10 -2 -5 0 4 3 7 12 7
21 0 10 12 28 26 41 18 17 22 27 14 35 -7 7 -13 7 -18 1 -8 -12 -37 -13 -48
-2 -4 4 -13 2 -21 -4 -10 -9 -13 -7 -13 6 0 12 6 16 20 12 11 -3 20 -1 20 4 0
5 7 9 16 9 10 0 14 6 10 15 -3 9 0 15 10 15 8 0 12 -4 9 -10 -3 -5 -1 -10 4
-10 15 0 14 29 -1 44 -7 7 -22 16 -33 20 -16 7 -17 9 -5 15 27 11 60 45 60 62
0 9 -9 19 -20 22 -11 3 -20 12 -20 21 0 9 -8 16 -20 16 -11 0 -20 -4 -20 -10
0 -17 -25 -11 -38 10 -11 18 -10 20 8 20 12 0 20 7 20 18 0 27 -29 62 -51 62
-12 0 -19 7 -19 19 0 10 -7 24 -15 31 -22 19 -18 37 10 44 14 4 25 13 25 22 0
8 -4 12 -10 9 -11 -7 -13 15 -4 39 6 15 8 15 19 -1 12 -16 14 -14 20 20 5 26
3 42 -6 54 -15 18 -16 18 36 -3 11 -5 13 -2 9 11 -6 14 -3 16 14 11 16 -5 21
-2 24 16 2 13 12 24 26 28 13 3 23 7 22 10 -1 3 4 19 10 35 7 17 12 41 12 55
0 13 9 36 20 51 11 15 17 32 14 38 -13 20 10 11 31 -11z m-3212 2 c3 -5 2 -10
-4 -10 -5 0 -13 5 -16 10 -3 6 -2 10 4 10 5 0 13 -4 16 -10z m-115 -25 c0 -8
-2 -15 -4 -15 -2 0 -6 7 -10 15 -3 8 -1 15 4 15 6 0 10 -7 10 -15z m-100 -9
c0 -3 -4 -8 -10 -11 -5 -3 -10 -1 -10 4 0 6 5 11 10 11 6 0 10 -2 10 -4z
m1240 -36 c0 -5 -4 -10 -10 -10 -5 0 -10 5 -10 10 0 6 5 10 10 10 6 0 10 -4
10 -10z m-1870 -10 c0 -5 -2 -10 -4 -10 -3 0 -8 5 -11 10 -3 6 -1 10 4 10 6 0
11 -4 11 -10z m335 -30 c0 -8 -6 -15 -12 -17 -8 -3 -13 4 -13 17 0 19 -2 20
-15 10 -16 -14 -18 -10 -9 15 6 14 9 14 28 2 11 -8 21 -20 21 -27z m2625 -50
c0 -5 -7 -10 -15 -10 -8 0 -15 5 -15 10 0 6 7 10 15 10 8 0 15 -4 15 -10z
m125 0 c-3 -5 -11 -10 -16 -10 -6 0 -7 5 -4 10 3 6 11 10 16 10 6 0 7 -4 4
-10z m-2745 -30 c0 -5 -4 -10 -10 -10 -5 0 -10 5 -10 10 0 6 5 10 10 10 6 0
10 -4 10 -10z m2715 -31 c8 -11 -25 -40 -37 -33 -8 5 13 44 24 44 4 0 10 -5
13 -11z m125 -9 c0 -5 -5 -10 -11 -10 -5 0 -7 5 -4 10 3 6 8 10 11 10 2 0 4
-4 4 -10z m-3320 -80 c0 -5 -4 -10 -10 -10 -5 0 -10 5 -10 10 0 6 5 10 10 10
6 0 10 -4 10 -10z m3226 -49 c-13 -20 -26 -11 -26 16 0 25 1 26 16 11 9 -9 13
-21 10 -27z m-90 -38 c-5 -40 -6 -41 -17 -15 -9 24 -5 42 11 42 5 0 7 -12 6
-27z m-3246 -19 c0 -16 -16 -19 -25 -4 -8 13 4 32 16 25 5 -4 9 -13 9 -21z
m6120 11 c-14 -8 -35 -14 -47 -15 -12 0 -24 -4 -28 -9 -3 -5 -19 -13 -36 -16
-29 -7 -62 -20 -166 -66 -23 -11 -46 -19 -52 -19 -5 0 -60 -17 -123 -38 -62
-22 -144 -45 -182 -52 -38 -7 -92 -22 -120 -33 -52 -20 -146 -45 -204 -54 -18
-3 -35 -9 -38 -14 -3 -5 -16 -9 -28 -9 -19 0 -23 -6 -23 -26 0 -31 -39 -75
-60 -67 -12 5 -14 1 -9 -14 10 -30 -43 -39 -62 -11 -13 18 -22 19 -86 14 -98
-7 -111 -12 -140 -57 -25 -37 -46 -50 -46 -29 0 6 12 34 28 62 15 28 31 59 37
69 5 11 20 19 32 19 38 0 538 118 628 148 33 11 89 27 125 36 36 8 117 32 180
54 63 21 138 46 165 55 28 8 82 27 120 42 94 36 117 43 140 44 17 0 17 -1 -5
-14z m5280 5 c0 -5 -5 -10 -11 -10 -5 0 -7 5 -4 10 3 6 8 10 11 10 2 0 4 -4 4
-10z m-8390 -40 c0 -5 -7 -10 -16 -10 -8 0 -12 5 -9 10 3 6 10 10 16 10 5 0 9
-4 9 -10z m-2904 -27 c-10 -10 -19 5 -10 18 6 11 8 11 12 0 2 -7 1 -15 -2 -18z
m3094 13 c0 -8 -4 -18 -10 -21 -5 -3 -10 -4 -10 -1 0 2 -3 11 -6 20 -4 11 -1
16 10 16 9 0 16 -6 16 -14z m86 -11 c-3 -8 0 -15 6 -15 19 0 -4 -17 -33 -23
-18 -5 -26 -2 -26 7 0 8 9 11 25 8 17 -3 23 -1 18 7 -4 6 -4 16 -1 21 10 15
18 12 11 -5z m1344 -45 c0 -5 -2 -10 -4 -10 -3 0 -8 5 -11 10 -3 6 -1 10 4 10
6 0 11 -4 11 -10z m40 6 c0 -3 -4 -8 -10 -11 -5 -3 -10 -1 -10 4 0 6 5 11 10
11 6 0 10 -2 10 -4z m-4710 -26 c0 -5 -4 -10 -10 -10 -5 0 -10 5 -10 10 0 6 5
10 10 10 6 0 10 -4 10 -10z m3180 0 c0 -5 -4 -10 -10 -10 -5 0 -10 5 -10 10 0
6 5 10 10 10 6 0 10 -4 10 -10z m-3110 -10 c0 -5 -2 -10 -4 -10 -3 0 -8 5 -11
10 -3 6 -1 10 4 10 6 0 11 -4 11 -10z m11680 -45 c14 -16 10 -18 -14 -9 -9 3
-16 10 -16 15 0 14 16 11 30 -6z m105 -53 c11 -3 25 -11 31 -17 6 -6 42 -31
80 -55 130 -84 136 -108 11 -41 -116 62 -144 80 -162 108 -17 25 -17 26 1 18
11 -4 28 -10 39 -13z m-11600 -50 c-4 -4 -10 -1 -12 6 -3 6 -11 12 -19 12 -15
0 -19 12 -7 23 3 4 15 -2 26 -14 10 -11 16 -23 12 -27z m-85 14 c0 -3 -4 -8
-10 -11 -5 -3 -10 -1 -10 4 0 6 5 11 10 11 6 0 10 -2 10 -4z m4500 -156 c0 -5
-9 -8 -20 -7 -20 1 -25 8 -14 20 8 7 34 -3 34 -13z m-207 -28 c9 -9 13 -23 9
-30 -6 -8 -13 -6 -25 8 -31 36 -15 57 16 22z m-323 -13 c0 -5 -4 -9 -10 -9 -5
0 -10 7 -10 16 0 8 5 12 10 9 6 -3 10 -10 10 -16z m207 -1 c-3 -8 -6 -5 -6 6
-1 11 2 17 5 13 3 -3 4 -12 1 -19z m53 2 c0 -4 -7 -10 -15 -14 -10 -4 -15 1
-15 14 0 13 5 18 15 14 8 -4 15 -10 15 -14z m-4210 -25 c0 -9 -9 -15 -25 -15
-22 0 -24 2 -13 15 17 19 38 19 38 0z m4605 -45 c4 -6 10 -8 15 -5 10 6 22
-23 14 -36 -3 -5 -16 -9 -30 -9 -20 0 -24 5 -24 30 0 30 13 40 25 20z m-539
-77 c-10 -10 -19 5 -10 18 6 11 8 11 12 0 2 -7 1 -15 -2 -18z m674 8 c0 -9
-52 -22 -60 -15 -7 7 23 24 43 24 9 0 17 -4 17 -9z m68 -76 c0 -13 -4 -22 -9
-20 -4 3 -12 -3 -18 -12 -10 -17 -10 -17 -11 0 0 22 18 57 29 57 5 0 9 -11 9
-25z m-678 -94 c0 -13 -26 -32 -33 -24 -14 13 -6 33 13 33 11 0 20 -4 20 -9z
m830 -36 c10 -13 9 -15 -9 -15 -12 0 -21 6 -21 15 0 8 4 15 9 15 5 0 14 -7 21
-15z m-5270 -65 c0 -5 -4 -10 -10 -10 -5 0 -10 5 -10 10 0 6 5 10 10 10 6 0
10 -4 10 -10z m4360 0 c0 -5 -5 -10 -11 -10 -5 0 -7 5 -4 10 3 6 8 10 11 10 2
0 4 -4 4 -10z m990 -12 c0 -6 -7 -7 -16 -4 -9 3 -18 6 -20 6 -3 0 -3 4 1 10 7
11 35 2 35 -12z m84 -33 c3 -8 1 -15 -4 -15 -6 0 -10 7 -10 15 0 8 2 15 4 15
2 0 6 -7 10 -15z m-1104 -60 c0 -8 -7 -15 -15 -15 -13 0 -14 3 -3 15 16 18 18
18 18 0z m114 -30 c-9 -14 -20 -25 -25 -25 -5 0 -9 -7 -9 -15 0 -9 -7 -18 -15
-21 -8 -4 -15 -12 -15 -19 0 -13 -48 -30 -58 -20 -3 3 6 17 21 31 15 14 27 29
27 33 0 5 8 8 18 7 9 0 16 5 14 12 -1 8 7 16 18 19 11 3 17 9 14 14 -3 5 2 9
11 9 14 0 14 -2 -1 -25z m156 12 c0 -19 -38 -47 -55 -41 -20 8 -13 30 7 26 9
-1 18 4 22 13 7 18 26 20 26 2z m-330 -48 c0 -5 -4 -9 -10 -9 -5 0 -10 7 -10
16 0 8 5 12 10 9 6 -3 10 -10 10 -16z m245 11 c3 -5 1 -10 -4 -10 -6 0 -11 -7
-11 -16 0 -8 -4 -12 -10 -9 -5 3 -10 -1 -10 -9 0 -9 -4 -16 -10 -16 -5 0 -10
7 -10 15 0 18 -17 20 -23 3 -2 -7 -8 -10 -12 -6 -5 4 4 19 19 33 28 26 60 33
71 15z m141 -26 c-4 -9 -9 -15 -11 -12 -3 3 -3 13 1 22 4 9 9 15 11 12 3 -3 3
-13 -1 -22z m94 6 c0 -5 -4 -10 -10 -10 -5 0 -10 5 -10 10 0 6 5 10 10 10 6 0
10 -4 10 -10z m-290 -66 c0 -8 -4 -12 -10 -9 -5 3 -10 10 -10 16 0 5 5 9 10 9
6 0 10 -7 10 -16z m8867 -19 c8 -9 13 -19 9 -22 -7 -8 -56 17 -56 29 0 14 30
9 47 -7z m68 -75 c3 -5 2 -10 -4 -10 -5 0 -13 5 -16 10 -3 6 -2 10 4 10 5 0
13 -4 16 -10z m-3401 -28 c13 -7 -15 -21 -31 -15 -7 3 -13 11 -13 19 0 12 17
11 44 -4z m3573 -148 c-9 -9 -28 6 -21 18 4 6 10 6 17 -1 6 -6 8 -13 4 -17z
m137 -130 c3 -8 2 -12 -4 -9 -6 3 -10 10 -10 16 0 14 7 11 14 -7z m-14 -24 c0
-5 -2 -10 -4 -10 -3 0 -8 5 -11 10 -3 6 -1 10 4 10 6 0 11 -4 11 -10z m70 -76
c0 -18 -4 -18 -24 5 -17 19 -17 19 3 14 12 -3 21 -12 21 -19z m45 -64 c3 -5 1
-10 -4 -10 -6 0 -11 5 -11 10 0 6 2 10 4 10 3 0 8 -4 11 -10z m-3337 -1239
c28 -24 28 -31 -1 -31 -17 0 -23 6 -25 25 -2 30 -1 30 26 6z m-3781 -83 c-3
-8 -6 -5 -6 6 -1 11 2 17 5 13 3 -3 4 -12 1 -19z m-6547 -298 c0 -5 -2 -10 -4
-10 -3 0 -8 5 -11 10 -3 6 -1 10 4 10 6 0 11 -4 11 -10z m-100 -30 c0 -5 -4
-10 -10 -10 -5 0 -10 5 -10 10 0 6 5 10 10 10 6 0 10 -4 10 -10z m6732 -232
c-9 -9 -12 -7 -12 12 0 19 3 21 12 12 9 -9 9 -15 0 -24z m-2 -174 c0 -8 -5
-12 -10 -9 -6 4 -8 11 -5 16 9 14 15 11 15 -7z m0 -123 c0 -5 -7 -11 -14 -14
-10 -4 -13 -1 -9 9 6 15 23 19 23 5z m-10 -42 c0 -6 -7 -17 -15 -25 -16 -16
-19 -7 -9 20 7 18 24 22 24 5z m-45 -115 c-23 -57 -38 -85 -43 -80 -5 6 27 96
41 114 17 22 18 6 2 -34z m-70 -147 c-8 -20 -23 -41 -32 -46 -10 -6 -14 -11
-9 -11 5 0 3 -7 -4 -15 -16 -19 -45 -70 -65 -115 -9 -20 -26 -40 -38 -45 -12
-6 -29 -24 -37 -40 -8 -17 -31 -46 -51 -66 -19 -19 -34 -40 -32 -46 3 -7 -7
-19 -21 -29 -14 -9 -30 -30 -34 -47 -9 -34 -27 -46 -35 -22 -4 9 23 52 76 117
45 57 93 120 105 140 13 20 26 38 31 40 4 2 41 53 81 115 41 62 75 111 77 109
2 -2 -4 -19 -12 -39z m-397 -540 c-13 -25 -35 -53 -50 -63 -16 -11 -28 -23
-28 -27 0 -12 -61 -69 -67 -63 -3 3 12 25 33 49 21 24 59 69 84 100 24 31 46
54 48 52 2 -1 -7 -23 -20 -48z m-158 -197 c-6 -11 -19 -24 -30 -30 -10 -5 -22
-19 -25 -30 -3 -11 -13 -20 -21 -20 -8 0 -25 -23 -38 -51 -13 -28 -26 -44 -29
-37 -3 8 -9 3 -17 -14 -7 -15 -16 -25 -20 -23 -5 3 -24 -19 -43 -48 -20 -28
-47 -61 -61 -71 -14 -10 -26 -25 -26 -32 0 -8 -7 -14 -15 -14 -8 0 -15 -5 -15
-11 0 -5 6 -7 13 -3 8 5 9 4 2 -4 -5 -6 -21 -12 -35 -14 -14 -1 -26 -7 -26
-13 -5 -33 -18 -56 -30 -51 -8 3 -14 -1 -14 -9 0 -8 -9 -15 -20 -15 -11 0 -20
-7 -20 -15 0 -16 -60 -81 -72 -77 -4 1 -8 -2 -8 -7 0 -5 -9 -12 -19 -16 -11
-3 -24 -18 -29 -33 -6 -17 -17 -28 -31 -29 -11 -1 -21 1 -21 5 1 11 75 91 288
308 217 221 259 266 316 336 37 46 67 57 46 18z m5177 -1242 c-3 -8 -6 -5 -6
6 -1 11 2 17 5 13 3 -3 4 -12 1 -19z"/>
<path d="M7455 20180 c-3 -5 -1 -10 4 -10 6 0 11 5 11 10 0 6 -2 10 -4 10 -3
0 -8 -4 -11 -10z"/>
<path d="M7465 20130 c-3 -5 1 -10 9 -10 9 0 16 5 16 10 0 6 -4 10 -9 10 -6 0
-13 -4 -16 -10z"/>
<path d="M7310 20039 c0 -5 5 -7 10 -4 6 3 10 8 10 11 0 2 -4 4 -10 4 -5 0
-10 -5 -10 -11z"/>
<path d="M7205 19970 c-3 -5 -1 -10 4 -10 6 0 11 5 11 10 0 6 -2 10 -4 10 -3
0 -8 -4 -11 -10z"/>
<path d="M7090 19925 c-7 -8 -8 -15 -2 -15 5 0 15 7 22 15 7 8 8 15 2 15 -5 0
-15 -7 -22 -15z"/>
<path d="M7135 19880 c-3 -5 -1 -10 4 -10 6 0 11 5 11 10 0 6 -2 10 -4 10 -3
0 -8 -4 -11 -10z"/>
<path d="M6907 19728 c-14 -11 -16 -18 -8 -38 7 -19 10 -20 10 -7 1 14 6 17
21 12 23 -7 26 3 7 28 -10 15 -15 16 -30 5z"/>
<path d="M11032 20060 c0 -14 2 -19 5 -12 2 6 2 18 0 25 -3 6 -5 1 -5 -13z"/>
<path d="M7632 18800 c-7 -11 -9 -20 -4 -20 4 0 13 9 20 20 7 11 9 20 4 20 -4
0 -13 -9 -20 -20z"/>
<path d="M7487 18704 c-6 -8 -23 -28 -37 -43 -43 -48 -33 -55 18 -13 68 57 76
67 51 69 -10 1 -25 -5 -32 -13z"/>
<path d="M8151 18604 c0 -11 3 -14 6 -6 3 7 2 16 -1 19 -3 4 -6 -2 -5 -13z"/>
<path d="M8110 18554 c-6 -14 -10 -31 -10 -39 0 -8 -4 -17 -10 -20 -5 -3 -10
-11 -10 -16 0 -18 18 0 39 41 23 45 26 60 11 60 -6 0 -15 -12 -20 -26z"/>
<path d="M8077 18353 c-4 -3 -7 -15 -7 -26 0 -19 1 -19 20 3 11 13 20 25 20
27 0 6 -26 3 -33 -4z"/>
<path d="M8033 18267 c-13 -13 -23 -28 -23 -35 0 -20 31 -13 37 8 3 11 9 20
14 20 5 0 9 7 9 15 0 20 -11 18 -37 -8z"/>
<path d="M7917 17913 c14 -7 35 -13 47 -13 12 0 28 -6 35 -12 11 -10 14 -10
18 0 3 6 13 12 24 12 10 0 19 5 19 10 0 10 -14 12 -112 15 -52 1 -54 0 -31
-12z"/>
<path d="M7690 18244 c0 -8 5 -12 10 -9 6 4 8 11 5 16 -9 14 -15 11 -15 -7z"/>
<path d="M13870 18410 c0 -5 5 -10 11 -10 5 0 7 5 4 10 -3 6 -8 10 -11 10 -2
0 -4 -4 -4 -10z"/>
<path d="M13555 18130 c-3 -4 2 -11 11 -14 22 -8 34 -7 34 3 0 12 -39 21 -45
11z"/>
<path d="M12940 18172 c0 -5 7 -13 16 -16 10 -4 14 -1 12 6 -5 15 -28 23 -28
10z"/>
<path d="M6735 16340 c-3 -5 -1 -10 4 -10 6 0 11 5 11 10 0 6 -2 10 -4 10 -3
0 -8 -4 -11 -10z"/>
<path d="M6864 14055 c4 -24 16 -30 16 -7 0 12 -4 22 -9 22 -5 0 -8 -7 -7 -15z"/>
<path d="M7940 13308 c0 -21 14 -36 41 -46 20 -8 26 -7 26 4 0 12 -17 19 -39
15 -5 0 -8 8 -8 19 0 11 -4 20 -10 20 -5 0 -10 -6 -10 -12z"/>
<path d="M7445 13290 c3 -5 8 -10 11 -10 2 0 4 5 4 10 0 6 -5 10 -11 10 -5 0
-7 -4 -4 -10z"/>
<path d="M7466 13275 c-3 -9 0 -15 9 -15 8 0 15 7 15 15 0 8 -4 15 -9 15 -5 0
-11 -7 -15 -15z"/>
<path d="M7515 13240 c-7 -12 12 -60 25 -60 6 0 13 6 16 14 6 16 -32 60 -41
46z"/>
<path d="M7883 13195 c-7 -20 2 -29 21 -22 9 4 13 13 10 22 -8 19 -23 19 -31
0z"/>
<path d="M7560 13176 c0 -8 5 -18 10 -21 6 -3 10 3 10 14 0 12 -4 21 -10 21
-5 0 -10 -6 -10 -14z"/>
<path d="M7596 13124 c-5 -12 -2 -15 10 -10 8 3 18 6 20 6 2 0 4 5 4 10 0 16
-27 11 -34 -6z"/>
<path d="M7840 12023 c0 -5 5 -15 10 -23 8 -12 10 -11 10 8 0 12 -4 22 -10 22
-5 0 -10 -3 -10 -7z"/>
<path d="M6980 10630 c0 -5 10 -10 23 -10 18 0 19 2 7 10 -19 13 -30 13 -30 0z"/>
<path d="M9100 11561 c0 -5 5 -13 10 -16 6 -3 10 -2 10 4 0 5 -4 13 -10 16 -5
3 -10 2 -10 -4z"/>
<path d="M4526 6265 c4 -8 11 -15 16 -15 6 0 5 6 -2 15 -7 8 -14 15 -16 15 -2
0 -1 -7 2 -15z"/>
<path d="M4534 6206 c-3 -8 -1 -23 5 -33 9 -15 10 -13 11 15 0 34 -7 42 -16
18z"/>
<path d="M4910 6165 c0 -8 5 -15 10 -15 6 0 10 7 10 15 0 8 -4 15 -10 15 -5 0
-10 -7 -10 -15z"/>
<path d="M4695 6127 c-17 -13 -17 -14 4 -20 11 -3 21 -12 21 -21 0 -9 7 -16
15 -16 18 0 19 29 1 53 -16 21 -17 21 -41 4z"/>
<path d="M4931 9764 c0 -11 3 -14 6 -6 3 7 2 16 -1 19 -3 4 -6 -2 -5 -13z"/>
<path d="M4720 9761 c0 -6 5 -13 10 -16 6 -3 10 1 10 9 0 9 -4 16 -10 16 -5 0
-10 -4 -10 -9z"/>
<path d="M4457 9433 c-4 -3 -7 -11 -7 -17 0 -6 5 -5 12 2 6 6 9 14 7 17 -3 3
-9 2 -12 -2z"/>
<path d="M1173 8813 c-32 -6 -29 -23 5 -23 39 0 73 11 66 21 -5 9 -31 10 -71
2z"/>
<path d="M1045 8790 c-15 -6 -6 -9 33 -9 28 -1 52 4 52 9 0 12 -57 12 -85 0z"/>
<path d="M895 8760 c-3 -5 -1 -10 4 -10 6 0 11 5 11 10 0 6 -2 10 -4 10 -3 0
-8 -4 -11 -10z"/>
<path d="M4161 8213 c0 -4 4 -17 9 -28 8 -19 9 -19 9 2 1 12 -3 25 -9 28 -5 3
-10 3 -9 -2z"/>
<path d="M4193 8118 c1 -16 5 -28 9 -28 10 0 9 9 -2 35 -8 17 -8 16 -7 -7z"/>
<path d="M4210 8045 c0 -5 5 -17 10 -25 5 -8 10 -10 10 -5 0 6 -5 17 -10 25
-5 8 -10 11 -10 5z"/>
<path d="M4121 7983 c-6 -10 -11 -14 -11 -9 0 6 -7 1 -16 -10 -11 -13 -17 -15
-20 -6 -3 6 -9 12 -14 12 -13 0 0 -93 15 -110 21 -23 19 -30 -11 -30 -20 0
-24 -4 -20 -17 3 -10 -1 -30 -9 -45 -7 -16 -10 -28 -4 -28 5 0 9 -7 9 -15 0
-8 -4 -15 -10 -15 -5 0 -10 -11 -10 -25 0 -14 -4 -25 -8 -25 -5 0 -9 -20 -9
-45 0 -25 -5 -51 -11 -57 -16 -16 -15 -48 1 -49 6 -1 19 -3 27 -4 8 0 27 -6
42 -13 41 -17 78 4 71 40 -5 24 -2 28 18 28 13 0 30 4 38 9 12 8 12 11 0 24
-8 8 -28 21 -44 30 -17 9 -24 16 -17 17 7 0 22 -4 32 -10 25 -13 48 13 30 35
-9 10 -9 15 -1 15 6 0 11 5 11 11 0 6 -7 8 -16 5 -14 -5 -16 0 -11 35 6 48 5
47 44 55 25 5 32 2 36 -12 3 -13 5 -10 6 9 1 16 -5 30 -13 33 -8 3 -12 12 -9
21 3 8 0 19 -7 23 -11 7 -11 12 -2 23 7 7 8 18 4 22 -4 5 -2 5 5 1 6 -3 14 -2
18 4 3 5 -2 10 -12 11 -10 0 -13 3 -7 5 13 5 6 62 -9 71 -6 4 -8 -4 -5 -20 3
-15 2 -24 -2 -22 -5 3 -11 -2 -14 -11 -3 -8 -10 -12 -16 -9 -6 4 -8 11 -5 16
4 5 -1 12 -9 15 -9 3 -16 12 -16 20 0 20 -27 17 -39 -3z m39 -24 c0 -5 -4 -9
-10 -9 -5 0 -10 7 -10 16 0 8 5 12 10 9 6 -3 10 -10 10 -16z"/>
<path d="M4002 7978 c2 -6 10 -14 16 -16 7 -2 10 2 6 12 -7 18 -28 22 -22 4z"/>
<path d="M4268 7854 c-3 -12 2 -31 13 -45 l19 -24 -9 30 c-5 17 -11 37 -13 45
-3 10 -6 8 -10 -6z"/>
<path d="M4334 7650 c2 -19 -1 -43 -6 -52 -6 -12 -5 -18 2 -18 6 0 15 -10 20
-22 7 -16 8 -7 3 32 -3 30 -10 64 -15 75 -6 15 -7 11 -4 -15z"/>
<path d="M3929 7588 c-6 -12 -4 -48 2 -48 5 0 9 11 9 25 0 21 -6 33 -11 23z"/>
<path d="M4375 7462 c3 -30 10 -61 15 -70 8 -13 9 -5 5 32 -10 73 -25 103 -20
38z"/>
<path d="M4095 7390 c3 -5 13 -10 21 -10 8 0 14 5 14 10 0 6 -9 10 -21 10 -11
0 -17 -4 -14 -10z"/>
<path d="M4080 7370 c0 -5 5 -10 10 -10 6 0 10 5 10 10 0 6 -4 10 -10 10 -5 0
-10 -4 -10 -10z"/>
<path d="M3519 7193 c-13 -17 -13 -17 6 -3 11 8 22 16 24 17 2 2 0 3 -6 3 -6
0 -17 -8 -24 -17z"/>
<path d="M1540 7016 c0 -9 5 -16 10 -16 6 0 10 4 10 9 0 6 -4 13 -10 16 -5 3
-10 -1 -10 -9z"/>
<path d="M1910 7020 c19 -13 30 -13 30 0 0 6 -10 10 -22 10 -19 0 -20 -2 -8
-10z"/>
<path d="M1990 7022 c0 -5 7 -13 16 -16 10 -4 14 -1 12 6 -5 15 -28 23 -28 10z"/>
<path d="M1591 7001 c-8 -6 -9 -11 -3 -15 6 -3 14 -1 17 5 9 14 2 20 -14 10z"/>
<path d="M1540 6963 c0 -5 4 -14 9 -21 7 -11 9 -11 14 1 3 8 3 18 0 21 -9 8
-23 7 -23 -1z"/>
<path d="M1584 6937 c-9 -24 6 -44 18 -22 7 11 6 21 -1 28 -7 7 -12 6 -17 -6z"/>
<path d="M960 6880 c0 -5 7 -10 15 -10 8 0 15 5 15 10 0 6 -7 10 -15 10 -8 0
-15 -4 -15 -10z"/>
<path d="M3140 6880 c0 -5 5 -10 11 -10 5 0 7 5 4 10 -3 6 -8 10 -11 10 -2 0
-4 -4 -4 -10z"/>
<path d="M906 6844 c-4 -9 -4 -19 -2 -21 8 -8 26 8 26 23 0 19 -16 18 -24 -2z"/>
<path d="M980 6844 c0 -8 5 -12 10 -9 6 3 10 10 10 16 0 5 -4 9 -10 9 -5 0
-10 -7 -10 -16z"/>
<path d="M3230 6849 c0 -5 5 -7 10 -4 6 3 10 8 10 11 0 2 -4 4 -10 4 -5 0 -10
-5 -10 -11z"/>
<path d="M483 6840 c-29 -12 -29 -15 2 -15 14 0 27 6 30 13 5 14 -1 14 -32 2z"/>
<path d="M6 6804 c-3 -9 -6 -28 -6 -42 l0 -26 16 22 c8 12 20 20 25 17 5 -4 9
0 9 8 0 10 -7 13 -20 10 -16 -4 -19 -2 -14 11 3 9 4 16 1 16 -3 0 -8 -7 -11
-16z"/>
<path d="M422 6811 c-11 -7 -10 -10 3 -15 23 -9 25 -8 25 9 0 17 -9 19 -28 6z"/>
<path d="M348 6783 c7 -3 16 -2 19 1 4 3 -2 6 -13 5 -11 0 -14 -3 -6 -6z"/>
<path d="M418 6773 c-10 -2 -18 -8 -18 -13 0 -4 9 -6 20 -3 11 3 20 9 20 14 0
5 -1 8 -2 8 -2 -1 -11 -3 -20 -6z"/>
<path d="M3256 6763 c-3 -7 -1 -15 5 -19 6 -3 15 -17 20 -31 5 -14 12 -23 16
-19 3 3 12 1 19 -5 8 -7 14 -7 19 1 3 5 15 10 25 10 32 0 33 20 1 31 -18 7
-31 18 -31 28 0 13 -9 17 -35 17 -19 0 -37 -6 -39 -13z"/>
<path d="M3190 6750 c0 -5 0 -13 -1 -17 0 -5 14 -11 30 -14 17 -4 31 -3 31 2
0 5 -6 9 -14 9 -8 0 -16 7 -20 15 -6 17 -26 21 -26 5z"/>
<path d="M362 6690 c0 -14 2 -19 5 -12 2 6 2 18 0 25 -3 6 -5 1 -5 -13z"/>
<path d="M3030 6699 c0 -5 5 -7 10 -4 6 3 10 8 10 11 0 2 -4 4 -10 4 -5 0 -10
-5 -10 -11z"/>
<path d="M260 6671 c0 -5 7 -11 15 -15 9 -3 15 0 15 9 0 8 -7 15 -15 15 -8 0
-15 -4 -15 -9z"/>
<path d="M327 6650 c3 -11 7 -20 9 -20 2 0 4 9 4 20 0 11 -4 20 -9 20 -5 0 -7
-9 -4 -20z"/>
<path d="M350 6650 c0 -5 5 -10 10 -10 6 0 10 5 10 10 0 6 -4 10 -10 10 -5 0
-10 -4 -10 -10z"/>
<path d="M3490 6629 c0 -5 5 -7 10 -4 6 3 10 8 10 11 0 2 -4 4 -10 4 -5 0 -10
-5 -10 -11z"/>
<path d="M131 6604 c0 -11 3 -14 6 -6 3 7 2 16 -1 19 -3 4 -6 -2 -5 -13z"/>
<path d="M3396 6596 c10 -8 21 -12 24 -10 5 6 -21 24 -34 24 -6 0 -1 -6 10
-14z"/>
<path d="M186 6582 c-2 -4 -1 -13 3 -20 4 -8 11 -5 19 8 10 16 10 20 -2 20 -8
0 -17 -4 -20 -8z"/>
<path d="M166 6545 c9 -14 19 -24 21 -21 6 6 -20 46 -30 46 -4 0 0 -11 9 -25z"/>
<path d="M235 6550 c-3 -5 -1 -10 4 -10 6 0 11 5 11 10 0 6 -2 10 -4 10 -3 0
-8 -4 -11 -10z"/>
<path d="M3410 6540 c0 -5 5 -10 10 -10 6 0 10 5 10 10 0 6 -4 10 -10 10 -5 0
-10 -4 -10 -10z"/>
<path d="M3410 6510 c0 -5 5 -10 11 -10 5 0 7 5 4 10 -3 6 -8 10 -11 10 -2 0
-4 -4 -4 -10z"/>
<path d="M131 6484 c0 -11 3 -14 6 -6 3 7 2 16 -1 19 -3 4 -6 -2 -5 -13z"/>
<path d="M0 6244 c0 -29 3 -34 13 -25 8 6 17 8 20 4 10 -9 9 1 -3 31 -14 37
-30 32 -30 -10z"/>
<path d="M160 6221 c0 -5 5 -13 10 -16 6 -3 10 -2 10 4 0 5 -4 13 -10 16 -5 3
-10 2 -10 -4z"/>
<path d="M65 6187 c-4 -10 -5 -21 -1 -24 10 -10 18 4 13 24 -4 17 -4 17 -12 0z"/>
<path d="M136 6171 c-7 -11 31 -22 50 -14 8 3 14 9 14 14 0 13 -18 11 -23 -3
-4 -10 -6 -10 -6 0 -1 14 -27 16 -35 3z"/>
<path d="M210 6140 c0 -5 6 -10 14 -10 8 0 18 5 21 10 3 6 -3 10 -14 10 -12 0
-21 -4 -21 -10z"/>
<path d="M340 6010 c0 -5 5 -10 10 -10 6 0 10 5 10 10 0 6 -4 10 -10 10 -5 0
-10 -4 -10 -10z"/>
<path d="M270 5825 c0 -9 5 -15 11 -13 6 2 11 8 11 13 0 5 -5 11 -11 13 -6 2
-11 -4 -11 -13z"/>
<path d="M9900 5769 c0 -5 5 -7 10 -4 6 3 10 8 10 11 0 2 -4 4 -10 4 -5 0 -10
-5 -10 -11z"/>
<path d="M182 5741 c4 -13 18 -16 19 -4 0 4 -5 9 -11 12 -7 2 -11 -2 -8 -8z"/>
<path d="M6850 5528 c0 -6 3 -8 7 -5 3 4 13 1 22 -6 14 -11 14 -10 2 6 -15 20
-31 22 -31 5z"/>
<path d="M6910 5516 c0 -3 13 -12 30 -21 26 -13 29 -14 24 0 -4 8 -10 15 -14
15 -5 0 -15 3 -24 6 -9 3 -16 4 -16 0z"/>
<path d="M9970 5200 c0 -5 5 -10 10 -10 6 0 10 5 10 10 0 6 -4 10 -10 10 -5 0
-10 -4 -10 -10z"/>
<path d="M9740 5020 c0 -5 4 -10 9 -10 6 0 13 5 16 10 3 6 -1 10 -9 10 -9 0
-16 -4 -16 -10z"/>
<path d="M9940 5019 c0 -5 5 -7 10 -4 6 3 10 8 10 11 0 2 -4 4 -10 4 -5 0 -10
-5 -10 -11z"/>
<path d="M10106 4793 c-6 -14 -5 -15 5 -6 7 7 10 15 7 18 -3 3 -9 -2 -12 -12z"/>
<path d="M10331 4134 c0 -11 3 -14 6 -6 3 7 2 16 -1 19 -3 4 -6 -2 -5 -13z"/>
<path d="M10467 3676 c-7 -18 3 -56 14 -56 5 0 9 16 9 35 0 35 -13 47 -23 21z"/>
<path d="M10672 3091 c16 -25 41 -28 36 -3 -2 9 -14 18 -26 20 -21 3 -22 2
-10 -17z"/>
<path d="M10845 2680 c3 -5 8 -10 11 -10 2 0 4 5 4 10 0 6 -5 10 -11 10 -5 0
-7 -4 -4 -10z"/>
<path d="M11190 1316 c0 -9 5 -16 10 -16 6 0 10 4 10 9 0 6 -4 13 -10 16 -5 3
-10 -1 -10 -9z"/>
<path d="M7421 764 c0 -11 3 -14 6 -6 3 7 2 16 -1 19 -3 4 -6 -2 -5 -13z"/>
<path d="M7171 134 c0 -11 3 -14 6 -6 3 7 2 16 -1 19 -3 4 -6 -2 -5 -13z"/>
</g>
</svg>
